<svg width="64" height="64" viewBox="0 0 64 64" fill="none" xmlns="http://www.w3.org/2000/svg">
<g clip-path="url(#clip0_551_52370)">
<path d="M50.959 4.75537H21.5991V16.9307H57.2295V11.0234C57.2295 7.56689 54.4165 4.75537 50.959 4.75537Z" fill="#EEE7F3"/>
<path d="M34.3394 18.8042H0V7.50684C0 3.36719 3.36865 0 7.50977 0H18.4893C19.5806 0 20.6318 0.22998 21.5869 0.662109C22.9209 1.26318 24.0669 2.25391 24.8706 3.54834L34.3394 18.8042Z" fill="#510C76"/>
<path d="M64 21.3335V57.7241C64 61.1851 61.1826 64 57.7202 64H6.27979C2.81738 64 0 61.1851 0 57.7241V15.0562H57.7202C61.1826 15.0562 64 17.8721 64 21.3335Z" fill="#7A3D9B"/>
<path d="M64 21.3335V57.7241C64 61.1851 61.1826 64 57.7202 64H32V15.0562H57.7202C61.1826 15.0562 64 17.8721 64 21.3335Z" fill="#590D82"/>
<path d="M48.835 39.5273C48.835 48.811 41.2827 56.3638 32 56.3638C22.7173 56.3638 15.165 48.811 15.165 39.5273C15.165 30.2451 22.7173 22.6924 32 22.6924C41.2827 22.6924 48.835 30.2451 48.835 39.5273Z" fill="#FAF8FB"/>
<path d="M48.835 39.5273C48.835 48.811 41.2827 56.3638 32 56.3638V22.6924C41.2827 22.6924 48.835 30.2451 48.835 39.5273Z" fill="#EEE7F3"/>
<path d="M37.4262 39.7339C37.0751 40.0313 36.645 40.1763 36.2187 40.1763C35.685 40.1763 35.1547 39.9502 34.7836 39.5098L33.8749 38.4326V45.4849C33.8749 46.52 33.0351 47.3599 31.9999 47.3599C30.9648 47.3599 30.1249 46.52 30.1249 45.4849V38.4326L29.2163 39.5098C28.5473 40.3013 27.3652 40.4023 26.5737 39.7339C25.7827 39.0664 25.6811 37.8838 26.3486 37.0923L30.06 32.6924C30.5439 32.1201 31.2499 31.791 31.9999 31.791C32.7499 31.791 33.456 32.1201 33.9399 32.6924L37.6513 37.0923C38.3188 37.8838 38.2172 39.0664 37.4262 39.7339Z" fill="#7A3D9B"/>
<path d="M37.4263 39.7339C37.0752 40.0313 36.645 40.1763 36.2188 40.1763C35.6851 40.1763 35.1548 39.9502 34.7837 39.5098L33.875 38.4326V45.4849C33.875 46.52 33.0352 47.3599 32 47.3599V31.791C32.75 31.791 33.4561 32.1201 33.9399 32.6924L37.6514 37.0923C38.3188 37.8838 38.2173 39.0664 37.4263 39.7339Z" fill="#590D82"/>
</g>
<defs>
<clipPath id="clip0_551_52370">
<rect width="64" height="64" fill="white"/>
</clipPath>
</defs>
</svg>
