<svg width="540" height="211" viewBox="0 0 540 211" fill="none" xmlns="http://www.w3.org/2000/svg">
<path d="M169.186 56.1051C169.328 35.2065 152.5 18.1429 131.594 18.0009C110.693 17.8612 93.6317 34.6919 93.4896 55.5882C93.4501 61.4096 94.768 66.9166 97.0826 71.8601L97.036 71.8671L130.667 152.849L165.409 72.3374L165.367 72.3234C167.754 67.4149 169.146 61.9265 169.186 56.1051ZM131.165 81.0299C117.45 80.9367 106.408 69.7434 106.506 56.0306C106.597 42.3155 117.79 31.2736 131.501 31.369C145.218 31.4598 156.258 42.6555 156.165 56.3659C156.069 70.0834 144.878 81.1253 131.165 81.0299Z" fill="url(#paint0_linear_5_318)"/>
<path d="M131.349 65.3961C136.571 65.3961 140.803 61.1634 140.803 55.9422C140.803 50.7209 136.571 46.4883 131.349 46.4883C126.128 46.4883 121.896 50.7209 121.896 55.9422C121.896 61.1634 126.128 65.3961 131.349 65.3961Z" fill="url(#paint1_linear_5_318)"/>
<path d="M91.3032 56.1818C91.3684 46.6581 87.7195 37.6816 81.0343 30.9055C74.3444 24.1271 65.4168 20.3572 55.6415 20.292C36.119 20.292 20.1313 36.1703 20.0009 55.6952C19.9357 65.2212 23.5798 74.2024 30.2697 80.9808C36.955 87.7569 45.8849 91.5291 55.4064 91.592H55.6602C75.1803 91.592 91.1705 75.709 91.3032 56.1818ZM55.6602 79.2158V85.4074L55.4902 79.2158C49.273 79.1715 43.4446 76.7173 39.0786 72.2884C34.7126 67.8595 32.3352 62.0032 32.3747 55.7836C32.4609 43.0372 42.8998 32.6659 55.8092 32.6659C62.0264 32.7124 67.8547 35.1667 72.2184 39.5956C76.5845 44.0245 78.9666 49.8808 78.9223 56.1003C78.8362 68.8444 68.402 79.2158 55.6602 79.2158Z" fill="url(#paint2_linear_5_318)"/>
<path d="M55.6485 65.3961C60.8697 65.3961 65.1023 61.1634 65.1023 55.9422C65.1023 50.7209 60.8697 46.4883 55.6485 46.4883C50.4272 46.4883 46.1946 50.7209 46.1946 55.9422C46.1946 61.1634 50.4272 65.3961 55.6485 65.3961Z" fill="url(#paint3_linear_5_318)"/>
<path d="M69.7107 173.917L65.333 178.295C74.738 187.695 87.0863 192.394 99.4369 192.394C111.787 192.394 124.133 187.695 133.538 178.295L129.163 173.917C112.775 190.306 86.1036 190.31 69.7107 173.917Z" fill="url(#paint4_linear_5_318)"/>
<path d="M231.203 72.2543L260.12 18.2315H287.96L258.889 71.177L291.497 128.124H263.504L231.203 72.2543ZM205.824 37.3165H194.135L204.133 18.0776H230.742V128.278H205.824V37.3165ZM309.001 18.2315H335.303L358.682 75.4865L360.451 71.2539L364.835 60.711L370.449 46.936L376.063 33.084L380.37 22.4641L382.062 18.2315H406.672L412.055 128.124H386.676L385.599 63.9431L367.603 105.807H348.992L330.381 63.9431L328.689 128.124H304.848L309.001 18.2315ZM425.713 128.124L459.706 69.7918C457.245 65.7901 454.681 61.6087 452.015 57.248C449.349 52.8873 446.632 48.4751 443.863 44.0117C441.095 39.5482 438.377 35.136 435.711 30.7753C433.045 26.4146 430.533 22.2332 428.174 18.2315H456.322L472.934 45.3199L489.084 18.2315H517.231L486.315 70.2535L520 128.124H493.544L473.703 93.8019L472.241 96.4184L468.627 102.883L463.936 111.117L459.244 119.351L455.63 125.662L454.169 128.124H425.713Z" fill="#121212"/>
<mask id="mask0_5_318" style="mask-type:alpha" maskUnits="userSpaceOnUse" x="194" y="146" width="326" height="47">
<path d="M520 146.719V152.822H507.86V192.325H500.379V152.822H488.174V146.719H520Z" fill="#E100FF"/>
<path d="M468.936 192.325L458.437 174.083H452.728V192.325H445.247V146.719H460.996C464.496 146.719 467.449 147.332 469.855 148.557C472.305 149.782 474.12 151.422 475.301 153.478C476.526 155.534 477.139 157.831 477.139 160.368C477.139 163.343 476.264 166.055 474.514 168.505C472.808 170.911 470.161 172.552 466.574 173.427L477.86 192.325H468.936ZM452.728 168.112H460.996C463.796 168.112 465.896 167.412 467.296 166.012C468.739 164.612 469.461 162.731 469.461 160.368C469.461 158.006 468.761 156.169 467.361 154.856C465.961 153.5 463.84 152.822 460.996 152.822H452.728V168.112Z" fill="#E100FF"/>
<path d="M414.488 152.757V166.143H430.236V172.246H414.488V186.223H432.205V192.326H407.007V146.654H432.205V152.757H414.488Z" fill="#E100FF"/>
<path d="M396.923 146.719L379.796 192.325H371.134L353.942 146.719H361.947L375.465 184.648L389.049 146.719H396.923Z" fill="#E100FF"/>
<path d="M343.965 192.326H336.484L313.977 158.269V192.326H306.496V146.654H313.977L336.484 180.645V146.654H343.965V192.326Z" fill="#E100FF"/>
<path d="M272.011 192.785C267.768 192.785 263.853 191.801 260.265 189.832C256.722 187.82 253.9 185.042 251.8 181.498C249.744 177.911 248.716 173.886 248.716 169.424C248.716 164.962 249.744 160.959 251.8 157.416C253.9 153.872 256.722 151.116 260.265 149.147C263.853 147.135 267.768 146.129 272.011 146.129C276.299 146.129 280.214 147.135 283.757 149.147C287.345 151.116 290.166 153.872 292.222 157.416C294.279 160.959 295.307 164.962 295.307 169.424C295.307 173.886 294.279 177.911 292.222 181.498C290.166 185.042 287.345 187.82 283.757 189.832C280.214 191.801 276.299 192.785 272.011 192.785ZM272.011 186.289C275.03 186.289 277.72 185.611 280.083 184.254C282.445 182.855 284.282 180.886 285.595 178.349C286.951 175.767 287.629 172.793 287.629 169.424C287.629 166.056 286.951 163.103 285.595 160.565C284.282 158.028 282.445 156.081 280.083 154.725C277.72 153.369 275.03 152.691 272.011 152.691C268.993 152.691 266.302 153.369 263.94 154.725C261.578 156.081 259.718 158.028 258.362 160.565C257.05 163.103 256.394 166.056 256.394 169.424C256.394 172.793 257.05 175.767 258.362 178.349C259.718 180.886 261.578 182.855 263.94 184.254C266.302 185.611 268.993 186.289 272.011 186.289Z" fill="#E100FF"/>
<path d="M194.135 169.424C194.135 164.962 195.163 160.959 197.219 157.416C199.319 153.872 202.14 151.116 205.684 149.147C209.271 147.135 213.187 146.129 217.43 146.129C222.286 146.129 226.595 147.332 230.357 149.738C234.163 152.1 236.919 155.469 238.625 159.844H229.635C228.454 157.438 226.814 155.644 224.714 154.463C222.614 153.282 220.186 152.691 217.43 152.691C214.411 152.691 211.721 153.369 209.359 154.725C206.996 156.081 205.137 158.028 203.781 160.565C202.469 163.103 201.812 166.056 201.812 169.424C201.812 172.793 202.469 175.746 203.781 178.283C205.137 180.82 206.996 182.789 209.359 184.189C211.721 185.545 214.411 186.223 217.43 186.223C220.186 186.223 222.614 185.632 224.714 184.451C226.814 183.27 228.454 181.476 229.635 179.07H238.625C236.919 183.445 234.163 186.814 230.357 189.176C226.595 191.538 222.286 192.719 217.43 192.719C213.143 192.719 209.227 191.735 205.684 189.767C202.14 187.754 199.319 184.976 197.219 181.433C195.163 177.889 194.135 173.886 194.135 169.424Z" fill="#E100FF"/>
</mask>
<g mask="url(#mask0_5_318)">
<rect x="194.135" y="146.129" width="325.865" height="46.6302" fill="#590D82"/>
</g>
<defs>
<linearGradient id="paint0_linear_5_318" x1="93.4888" y1="18" x2="206.72" y2="63.7438" gradientUnits="userSpaceOnUse">
<stop stop-color="#7F00FF"/>
<stop offset="1" stop-color="#E100FF"/>
</linearGradient>
<linearGradient id="paint1_linear_5_318" x1="121.896" y1="46.4883" x2="143.569" y2="62.086" gradientUnits="userSpaceOnUse">
<stop stop-color="#7F00FF"/>
<stop offset="1" stop-color="#E100FF"/>
</linearGradient>
<linearGradient id="paint2_linear_5_318" x1="20" y1="20.292" x2="101.731" y2="79.1143" gradientUnits="userSpaceOnUse">
<stop stop-color="#7F00FF"/>
<stop offset="1" stop-color="#E100FF"/>
</linearGradient>
<linearGradient id="paint3_linear_5_318" x1="46.1946" y1="46.4883" x2="67.8682" y2="62.086" gradientUnits="userSpaceOnUse">
<stop stop-color="#7F00FF"/>
<stop offset="1" stop-color="#E100FF"/>
</linearGradient>
<linearGradient id="paint4_linear_5_318" x1="65.333" y1="173.917" x2="80.0619" y2="213.046" gradientUnits="userSpaceOnUse">
<stop stop-color="#7F00FF"/>
<stop offset="1" stop-color="#E100FF"/>
</linearGradient>
</defs>
</svg>
