<svg
  width="575"
  height="670"
  viewBox="0 0 575 670"
  fill="none"
  xmlns="http://www.w3.org/2000/svg"
>
  <g opacity="0.7">
    <ellipse
      cx="266.307"
      cy="321.89"
      rx="114.164"
      ry="133.026"
      fill="#4A3AFF"
    />
    <ellipse
      cx="321.272"
      cy="449.999"
      rx="114.164"
      ry="133.026"
      fill="#962DFF"
    />
    <ellipse
      cx="360.374"
      cy="316.973"
      rx="114.164"
      ry="133.026"
      fill="#2D5BFF"
    />
    <g filter="url(#filter0_b_465_88728)">
      <ellipse
        cx="287.5"
        cy="335"
        rx="287.5"
        ry="335"
        fill="white"
        fill-opacity="0.79"
      />
    </g>
  </g>
  <g opacity="0.3">
    <circle cx="312" cy="213" r="3" fill="#7562E0" />
    <circle cx="330" cy="213" r="3" fill="#7562E0" />
    <circle cx="348" cy="213" r="3" fill="#7562E0" />
    <circle cx="366" cy="213" r="3" fill="#7562E0" />
    <circle cx="384" cy="213" r="3" fill="#7562E0" />
    <circle cx="402" cy="213" r="3" fill="#7562E0" />
    <circle cx="420" cy="213" r="3" fill="#7562E0" />
    <circle cx="438" cy="213" r="3" fill="#7562E0" />
    <circle cx="456" cy="213" r="3" fill="#7562E0" />
    <circle cx="474" cy="213" r="3" fill="#7562E0" />
    <circle cx="492" cy="213" r="3" fill="#7562E0" />
    <circle cx="510" cy="213" r="3" fill="#7562E0" />
    <circle cx="312" cy="231" r="3" fill="#7562E0" />
    <circle cx="330" cy="231" r="3" fill="#7562E0" />
    <circle cx="348" cy="231" r="3" fill="#7562E0" />
    <circle cx="366" cy="231" r="3" fill="#7562E0" />
    <circle cx="384" cy="231" r="3" fill="#7562E0" />
    <circle cx="402" cy="231" r="3" fill="#7562E0" />
    <circle cx="420" cy="231" r="3" fill="#7562E0" />
    <circle cx="438" cy="231" r="3" fill="#7562E0" />
    <circle cx="456" cy="231" r="3" fill="#7562E0" />
    <circle cx="474" cy="231" r="3" fill="#7562E0" />
    <circle cx="492" cy="231" r="3" fill="#7562E0" />
    <circle cx="510" cy="231" r="3" fill="#7562E0" />
    <circle cx="312" cy="249" r="3" fill="#7562E0" />
    <circle cx="330" cy="249" r="3" fill="#7562E0" />
    <circle cx="348" cy="249" r="3" fill="#7562E0" />
    <circle cx="366" cy="249" r="3" fill="#7562E0" />
    <circle cx="384" cy="249" r="3" fill="#7562E0" />
    <circle cx="402" cy="249" r="3" fill="#7562E0" />
    <circle cx="420" cy="249" r="3" fill="#7562E0" />
    <circle cx="438" cy="249" r="3" fill="#7562E0" />
    <circle cx="456" cy="249" r="3" fill="#7562E0" />
    <circle cx="474" cy="249" r="3" fill="#7562E0" />
    <circle cx="492" cy="249" r="3" fill="#7562E0" />
    <circle cx="510" cy="249" r="3" fill="#7562E0" />
    <circle cx="312" cy="267" r="3" fill="#7562E0" />
    <circle cx="330" cy="267" r="3" fill="#7562E0" />
    <circle cx="348" cy="267" r="3" fill="#7562E0" />
    <circle cx="366" cy="267" r="3" fill="#7562E0" />
    <circle cx="384" cy="267" r="3" fill="#7562E0" />
    <circle cx="402" cy="267" r="3" fill="#7562E0" />
    <circle cx="420" cy="267" r="3" fill="#7562E0" />
    <circle cx="438" cy="267" r="3" fill="#7562E0" />
    <circle cx="456" cy="267" r="3" fill="#7562E0" />
    <circle cx="474" cy="267" r="3" fill="#7562E0" />
    <circle cx="492" cy="267" r="3" fill="#7562E0" />
    <circle cx="510" cy="267" r="3" fill="#7562E0" />
    <circle cx="312" cy="285" r="3" fill="#7562E0" />
    <circle cx="330" cy="285" r="3" fill="#7562E0" />
    <circle cx="348" cy="285" r="3" fill="#7562E0" />
    <circle cx="366" cy="285" r="3" fill="#7562E0" />
    <circle cx="384" cy="285" r="3" fill="#7562E0" />
    <circle cx="402" cy="285" r="3" fill="#7562E0" />
    <circle cx="420" cy="285" r="3" fill="#7562E0" />
    <circle cx="438" cy="285" r="3" fill="#7562E0" />
    <circle cx="456" cy="285" r="3" fill="#7562E0" />
    <circle cx="474" cy="285" r="3" fill="#7562E0" />
    <circle cx="492" cy="285" r="3" fill="#7562E0" />
    <circle cx="510" cy="285" r="3" fill="#7562E0" />
    <circle cx="312" cy="303" r="3" fill="#7562E0" />
    <circle cx="330" cy="303" r="3" fill="#7562E0" />
    <circle cx="348" cy="303" r="3" fill="#7562E0" />
    <circle cx="366" cy="303" r="3" fill="#7562E0" />
    <circle cx="384" cy="303" r="3" fill="#7562E0" />
    <circle cx="402" cy="303" r="3" fill="#7562E0" />
    <circle cx="420" cy="303" r="3" fill="#7562E0" />
    <circle cx="438" cy="303" r="3" fill="#7562E0" />
    <circle cx="456" cy="303" r="3" fill="#7562E0" />
    <circle cx="474" cy="303" r="3" fill="#7562E0" />
    <circle cx="492" cy="303" r="3" fill="#7562E0" />
    <circle cx="510" cy="303" r="3" fill="#7562E0" />
    <circle cx="312" cy="321" r="3" fill="#7562E0" />
    <circle cx="330" cy="321" r="3" fill="#7562E0" />
    <circle cx="348" cy="321" r="3" fill="#7562E0" />
    <circle cx="366" cy="321" r="3" fill="#7562E0" />
    <circle cx="384" cy="321" r="3" fill="#7562E0" />
    <circle cx="402" cy="321" r="3" fill="#7562E0" />
    <circle cx="420" cy="321" r="3" fill="#7562E0" />
    <circle cx="438" cy="321" r="3" fill="#7562E0" />
    <circle cx="456" cy="321" r="3" fill="#7562E0" />
    <circle cx="474" cy="321" r="3" fill="#7562E0" />
    <circle cx="492" cy="321" r="3" fill="#7562E0" />
    <circle cx="510" cy="321" r="3" fill="#7562E0" />
    <circle cx="312" cy="339" r="3" fill="#7562E0" />
    <circle cx="330" cy="339" r="3" fill="#7562E0" />
    <circle cx="348" cy="339" r="3" fill="#7562E0" />
    <circle cx="366" cy="339" r="3" fill="#7562E0" />
    <circle cx="384" cy="339" r="3" fill="#7562E0" />
    <circle cx="402" cy="339" r="3" fill="#7562E0" />
    <circle cx="420" cy="339" r="3" fill="#7562E0" />
    <circle cx="438" cy="339" r="3" fill="#7562E0" />
    <circle cx="456" cy="339" r="3" fill="#7562E0" />
    <circle cx="474" cy="339" r="3" fill="#7562E0" />
    <circle cx="492" cy="339" r="3" fill="#7562E0" />
    <circle cx="510" cy="339" r="3" fill="#7562E0" />
  </g>
  <path
    d="M239 387L239 488L172 488C153.222 488 138 472.778 138 454L138 387L239 387Z"
    fill="#F2E6FF"
  />
  <g filter="url(#filter1_d_465_88728)">
    <rect
      x="131"
      y="192.713"
      width="134"
      height="143.287"
      rx="21"
      fill="white"
    />
    <rect
      x="131.5"
      y="193.213"
      width="133"
      height="142.287"
      rx="20.5"
      stroke="#F2F2F2"
    />
  </g>
  <g opacity="0.3">
    <path
      opacity="0.3"
      d="M213.529 236.729C211.441 236.727 209.439 235.897 207.963 234.421C206.486 232.944 205.656 230.942 205.654 228.855V217.921H170.466C167.74 217.921 165.126 219.004 163.199 220.931C161.271 222.858 160.188 225.472 160.188 228.198V290.15C160.188 292.875 161.271 295.49 163.199 297.417C165.126 299.344 167.74 300.427 170.466 300.427H212.704C215.429 300.427 218.043 299.344 219.971 297.417C221.898 295.49 222.981 292.875 222.981 290.15V236.729H213.529Z"
      fill="#005FAD"
    />
  </g>
  <path
    d="M222.981 236.729H213.529C211.441 236.727 209.439 235.897 207.963 234.421C206.487 232.944 205.656 230.942 205.654 228.854V217.921L222.981 236.729Z"
    fill="#005FAD"
  />
  <path
    d="M230.435 283.077H182.682C179.295 283.077 176.549 285.823 176.549 289.21V303.448C176.549 306.835 179.295 309.581 182.682 309.581H230.435C233.823 309.581 236.569 306.835 236.569 303.448V289.21C236.569 285.823 233.823 283.077 230.435 283.077Z"
    fill="#005FAD"
  />
  <path
    d="M188.777 302.405C188.402 302.405 188.08 302.272 187.811 302.007C187.546 301.738 187.414 301.416 187.414 301.041C187.414 300.67 187.546 300.352 187.811 300.087C188.08 299.822 188.402 299.689 188.777 299.689C189.141 299.689 189.459 299.822 189.732 300.087C190.004 300.352 190.141 300.67 190.141 301.041C190.141 301.291 190.076 301.52 189.948 301.729C189.823 301.933 189.658 302.098 189.453 302.223C189.249 302.344 189.023 302.405 188.777 302.405ZM194.321 299.746L194.327 296.842H194.679L197.475 293.53H200.253L196.497 297.916H195.923L194.321 299.746ZM192.128 302.257V290.621H194.548V302.257H192.128ZM197.583 302.257L195.014 298.456L196.628 296.746L200.418 302.257H197.583ZM201.441 302.257V293.53H203.747V295.07H203.85C204.031 294.558 204.334 294.155 204.759 293.859C205.183 293.564 205.691 293.416 206.281 293.416C206.88 293.416 207.389 293.566 207.81 293.865C208.23 294.161 208.511 294.562 208.651 295.07H208.742C208.92 294.57 209.242 294.17 209.708 293.871C210.177 293.568 210.732 293.416 211.372 293.416C212.187 293.416 212.848 293.676 213.355 294.195C213.867 294.71 214.122 295.441 214.122 296.388V302.257H211.708V296.865C211.708 296.38 211.579 296.017 211.321 295.774C211.064 295.532 210.742 295.411 210.355 295.411C209.916 295.411 209.573 295.551 209.327 295.831C209.081 296.108 208.958 296.473 208.958 296.928V302.257H206.611V296.814C206.611 296.386 206.488 296.045 206.242 295.791C205.999 295.538 205.679 295.411 205.281 295.411C205.012 295.411 204.77 295.479 204.554 295.615C204.342 295.748 204.173 295.935 204.048 296.178C203.923 296.416 203.861 296.697 203.861 297.019V302.257H201.441ZM215.989 302.257V300.814L220.262 295.524V295.462H216.137V293.53H223.176V295.104L219.165 300.263V300.325H223.324V302.257H215.989Z"
    fill="white"
  />
  <path
    fill-rule="evenodd"
    clip-rule="evenodd"
    d="M190.315 242.012C188.04 242.243 186.269 242.751 184.397 243.709C183.013 244.417 181.92 245.204 180.747 246.339C178.344 248.664 176.772 251.612 176.228 254.816C175.846 257.066 175.943 259.248 176.525 261.482L176.719 262.23L176.5 262.71C176.009 263.783 175.875 265.099 176.155 266.088C176.555 267.499 177.885 269.58 179.743 271.701C180.845 272.959 181.07 273.124 181.42 272.929C181.566 272.848 182.311 272.049 182.984 271.252C183.209 270.985 183.404 270.767 183.418 270.767C183.432 270.767 183.686 270.901 183.983 271.065C186.228 272.303 188.403 272.899 191.012 272.989C192.569 273.043 193.888 272.896 195.476 272.492C198.073 271.83 200.524 270.414 202.499 268.436C205.03 265.901 206.599 262.574 206.958 258.983C207.06 257.954 207 255.974 206.836 255.011C206.62 253.746 206.304 252.645 205.815 251.461L205.64 251.037L205.872 250.658C206.238 250.059 206.578 249.35 206.788 248.746C206.97 248.221 206.982 248.137 206.982 247.339C206.982 246.428 206.894 245.984 206.551 245.168C206.065 244.012 205.047 242.957 203.913 242.433C203.173 242.092 202.781 242.011 201.862 242.01C201.194 242.009 200.956 242.034 200.571 242.144C199.81 242.362 199.054 242.78 198.548 243.264L198.295 243.506L197.396 243.142C195.425 242.344 193.935 242.042 191.8 242.007C191.116 241.996 190.448 241.998 190.315 242.012ZM192.739 243.067C193.592 243.146 194.346 243.272 195.077 243.459C196.094 243.72 197.594 244.281 197.548 244.383C197.536 244.409 197.428 244.621 197.307 244.854C196.831 245.773 196.589 246.998 196.71 247.868C196.875 249.042 197.716 250.697 199.019 252.408L199.374 252.874L199.057 252.917C198.589 252.98 198.378 253.086 198.289 253.302C198.179 253.568 198.297 253.841 198.571 253.956C198.684 254.003 198.795 254.029 198.818 254.015C198.842 254.001 199.155 253.958 199.515 253.92L200.168 253.85L200.482 254.201C201.768 255.641 201.842 255.67 202.498 254.991C203.055 254.413 203.853 253.485 204.427 252.748C204.681 252.422 204.91 252.158 204.936 252.163C205.084 252.186 205.661 254.215 205.83 255.31C205.968 256.203 206.015 257.904 205.928 258.826C205.854 259.601 205.638 260.786 205.467 261.359L205.371 261.68L204.908 261.249C204.227 260.612 203.845 260.442 202.871 260.342C201.774 260.229 201.122 260.433 200.399 261.114C199.762 261.715 199.272 262.57 198.884 263.758C198.786 264.059 198.677 264.51 198.642 264.759C198.565 265.316 198.409 265.659 198.086 265.982C197.784 266.283 197.615 266.375 196.952 266.598C195.76 266.998 194.829 267.587 194.422 268.2C194.223 268.501 194.193 268.594 194.173 268.98C194.147 269.499 194.209 269.664 194.796 270.639C195.013 271 195.207 271.336 195.227 271.388C195.256 271.464 195.158 271.506 194.729 271.606C193.267 271.946 191.177 272.054 189.739 271.865C188.831 271.745 188.83 271.745 188.828 271.359C188.828 271.183 188.799 270.849 188.764 270.615C188.667 269.957 188.68 269.482 188.801 269.248C188.963 268.935 189.463 268.436 190.89 267.161C192.978 265.296 193.73 264.438 194.284 263.285C194.639 262.546 194.766 262.071 194.81 261.311C194.936 259.117 193.24 256.354 191.184 255.405C190.601 255.136 190.112 255.014 189.35 254.947C188.356 254.859 187.732 254.542 187.293 253.901C186.992 253.461 186.877 253.11 186.874 252.613C186.871 252.191 186.9 252.084 187.215 251.336C187.438 250.808 187.517 250.195 187.477 249.309C187.421 248.092 187.135 246.909 186.697 246.083C186.449 245.617 185.854 244.976 185.442 244.733C185.273 244.633 185.134 244.534 185.133 244.514C185.133 244.494 185.425 244.353 185.784 244.2C188.026 243.245 190.43 242.854 192.739 243.067ZM203.057 243.215C204.33 243.62 205.363 244.723 205.811 246.157C205.928 246.531 205.953 246.741 205.951 247.339C205.948 248.007 205.932 248.108 205.755 248.574C205.404 249.498 204.788 250.526 203.808 251.825C203.251 252.561 201.935 254.098 201.86 254.098C201.71 254.098 199.895 251.869 199.198 250.83C197.931 248.938 197.58 247.863 197.819 246.601C198.311 244.009 200.699 242.465 203.057 243.215ZM201.017 244.704C200.114 245.029 199.465 245.814 199.306 246.774C199.08 248.135 200.049 249.448 201.459 249.689C202.262 249.827 203.078 249.559 203.67 248.963C204.656 247.97 204.695 246.426 203.76 245.424C203.411 245.049 203.112 244.851 202.662 244.696C202.21 244.541 201.461 244.544 201.017 244.704ZM184.387 245.378C185.522 245.799 186.111 246.757 186.377 248.612C186.543 249.775 186.484 250.404 186.13 251.229C185.698 252.234 185.712 253.123 186.176 254.05C186.754 255.203 187.755 255.841 189.204 255.978C189.98 256.051 190.627 256.245 191.146 256.561C191.337 256.677 191.508 256.794 191.525 256.822C191.542 256.849 191.294 257.127 190.973 257.44C190.653 257.752 190.176 258.246 189.913 258.537C189.506 258.989 189.436 259.099 189.436 259.282C189.436 259.564 189.657 259.795 189.927 259.795C190.098 259.795 190.246 259.666 191.221 258.663L192.322 257.53L192.696 258.089C193.443 259.205 193.757 260.089 193.756 261.068C193.755 261.936 193.532 262.629 192.986 263.462C192.471 264.246 191.828 264.924 190.33 266.261C188.61 267.795 188.175 268.238 187.927 268.702C187.633 269.254 187.591 269.606 187.709 270.529C187.764 270.958 187.8 271.351 187.789 271.401C187.772 271.475 187.619 271.442 186.951 271.219C186.219 270.974 184.486 270.186 184.205 269.97C184.105 269.892 184.123 269.849 184.48 269.341C185.298 268.177 185.786 267.278 186.119 266.323C186.303 265.795 186.313 265.722 186.309 264.917C186.303 263.914 186.188 263.405 185.777 262.553C185.454 261.887 185.078 261.38 184.526 260.869C184.118 260.491 184.11 260.478 184.204 260.343C184.374 260.101 184.69 259.291 184.833 258.731C185.034 257.944 185.038 256.816 184.841 256.328C184.483 255.442 183.54 254.82 182.1 254.518C181.593 254.412 181.154 254.377 179.919 254.342C178.54 254.304 178.337 254.285 178.037 254.168C177.421 253.928 177.437 254.009 177.792 252.942C178.502 250.81 179.716 248.846 181.31 247.252C182.197 246.365 183.638 245.251 183.902 245.249C183.976 245.249 184.194 245.307 184.387 245.378ZM202.499 245.754C202.829 245.908 203.162 246.246 203.294 246.56C203.34 246.67 203.377 246.935 203.377 247.149C203.377 248.144 202.492 248.863 201.533 248.649C200.526 248.423 200.019 247.326 200.496 246.404C200.617 246.169 201.087 245.766 201.329 245.688C201.687 245.573 202.169 245.601 202.499 245.754ZM195.492 254.086C194.796 254.442 193.858 255.02 193.581 255.264C193.321 255.492 193.299 255.785 193.524 256.01C193.771 256.256 193.99 256.209 194.679 255.761C195.012 255.544 195.578 255.217 195.936 255.033C196.293 254.85 196.614 254.648 196.648 254.585C196.827 254.25 196.583 253.795 196.225 253.795C196.136 253.795 195.805 253.926 195.492 254.086ZM177.849 255.202C178.143 255.307 178.415 255.332 179.768 255.373C181.404 255.423 181.763 255.467 182.526 255.708C183.341 255.965 183.778 256.337 183.929 256.901C184.025 257.263 183.926 258.245 183.735 258.824C183.551 259.38 183.244 259.987 183.162 259.955C181.247 259.221 179.396 259.519 177.877 260.808C177.567 261.071 177.496 261.108 177.469 261.021C177.389 260.765 177.195 259.712 177.127 259.159C176.992 258.08 177.044 256.005 177.228 255.113C177.257 254.968 177.277 254.955 177.384 255.013C177.451 255.049 177.661 255.134 177.849 255.202ZM181.647 260.646C182.855 260.818 183.892 261.501 184.579 262.575C185.181 263.516 185.416 264.809 185.165 265.796C184.956 266.622 184.22 267.924 183.146 269.37C182.672 270.007 181.315 271.63 181.192 271.706C181.13 271.744 179.883 270.307 179.246 269.463C178.225 268.111 177.526 266.921 177.216 266.008C177.082 265.613 177.052 265.417 177.053 264.948C177.058 262.793 178.642 260.912 180.675 260.647C181.189 260.579 181.177 260.579 181.647 260.646ZM187.995 260.927C187.9 260.965 187.131 262.039 186.953 262.381C186.833 262.614 186.83 262.649 186.912 262.846C187.022 263.11 187.203 263.213 187.47 263.163C187.649 263.129 187.739 263.029 188.221 262.325C188.821 261.45 188.871 261.286 188.62 261.035C188.478 260.893 188.2 260.845 187.995 260.927ZM203.559 261.535C203.725 261.612 204.055 261.888 204.402 262.239L204.972 262.817L204.834 263.14C203.53 266.184 201.152 268.761 198.225 270.302C197.655 270.602 196.775 270.99 196.43 271.095C196.317 271.129 196.236 271.023 195.748 270.205C195.152 269.206 195.109 269.058 195.315 268.72C195.536 268.358 196.686 267.735 197.62 267.471C198.287 267.283 199.045 266.631 199.374 265.961C199.493 265.721 199.597 265.375 199.651 265.038C199.912 263.427 200.736 261.928 201.589 261.513C201.867 261.377 201.949 261.367 202.589 261.387C203.132 261.405 203.347 261.438 203.559 261.535ZM180.383 262.275C179.631 262.524 178.976 263.155 178.727 263.872C178.578 264.302 178.577 265.167 178.725 265.594C179.169 266.867 180.623 267.599 181.914 267.197C182.65 266.968 183.159 266.522 183.515 265.796C183.696 265.426 183.708 265.362 183.708 264.736C183.708 264.111 183.695 264.043 183.513 263.658C183.258 263.12 182.778 262.639 182.248 262.391C181.717 262.142 180.932 262.094 180.383 262.275ZM181.708 263.29C182.712 263.633 183.036 265.014 182.291 265.781C181.951 266.132 181.661 266.251 181.162 266.249C180.678 266.246 180.375 266.118 180.062 265.786C179.746 265.449 179.65 265.206 179.649 264.736C179.648 264.378 179.675 264.26 179.826 263.987C180.198 263.315 180.956 263.034 181.708 263.29Z"
    fill="#005FAD"
  />
  <g filter="url(#filter2_d_465_88728)">
    <rect
      x="288"
      y="174"
      width="77.5537"
      height="82.9287"
      rx="17"
      fill="white"
    />
    <rect
      x="288.5"
      y="174.5"
      width="76.5537"
      height="81.9287"
      rx="16.5"
      stroke="#F2F2F2"
    />
  </g>
  <g opacity="0.3">
    <path
      opacity="0.3"
      d="M335.843 199.876C334.635 199.874 333.478 199.394 332.624 198.541C331.77 197.687 331.29 196.529 331.289 195.322V189H310.942C309.366 189 307.855 189.626 306.74 190.74C305.626 191.855 305 193.366 305 194.942V230.764C305 232.34 305.626 233.852 306.74 234.966C307.855 236.081 309.366 236.707 310.942 236.707H335.366C336.942 236.707 338.453 236.081 339.567 234.966C340.682 233.852 341.308 232.34 341.308 230.764V199.876H335.843Z"
      fill="#FF9908"
    />
  </g>
  <path
    d="M341.308 199.876H335.842C334.635 199.874 333.478 199.394 332.624 198.541C331.77 197.687 331.29 196.529 331.289 195.322V189L341.308 199.876Z"
    fill="#FF9908"
  />
  <path
    d="M338.241 227H316.759C315.235 227 314 228.554 314 230.471V238.529C314 240.446 315.235 242 316.759 242H338.241C339.765 242 341 240.446 341 238.529V230.471C341 228.554 339.765 227 338.241 227Z"
    fill="#FF9908"
  />
  <path
    d="M319.637 238.102C319.379 238.102 319.158 238.01 318.973 237.828C318.79 237.643 318.699 237.422 318.699 237.164C318.699 236.909 318.79 236.69 318.973 236.508C319.158 236.326 319.379 236.234 319.637 236.234C319.887 236.234 320.105 236.326 320.293 236.508C320.48 236.69 320.574 236.909 320.574 237.164C320.574 237.336 320.53 237.493 320.441 237.637C320.355 237.777 320.242 237.891 320.102 237.977C319.961 238.06 319.806 238.102 319.637 238.102ZM323.331 232L324.433 234.098L325.562 232H327.269L325.53 235L327.315 238H325.616L324.433 235.926L323.269 238H321.55L323.331 235L321.612 232H323.331ZM329.921 230V238H328.257V230H329.921ZM336.246 233.711L334.723 233.805C334.697 233.674 334.641 233.557 334.555 233.453C334.469 233.346 334.355 233.262 334.215 233.199C334.077 233.134 333.911 233.102 333.719 233.102C333.461 233.102 333.243 233.156 333.066 233.266C332.889 233.372 332.801 233.516 332.801 233.695C332.801 233.839 332.858 233.96 332.973 234.059C333.087 234.158 333.284 234.237 333.563 234.297L334.648 234.516C335.232 234.635 335.667 234.828 335.953 235.094C336.24 235.359 336.383 235.708 336.383 236.141C336.383 236.534 336.267 236.879 336.035 237.176C335.806 237.473 335.491 237.704 335.09 237.871C334.691 238.035 334.232 238.117 333.711 238.117C332.917 238.117 332.284 237.952 331.813 237.621C331.344 237.288 331.069 236.835 330.988 236.262L332.625 236.176C332.674 236.418 332.794 236.603 332.984 236.73C333.174 236.855 333.418 236.918 333.715 236.918C334.007 236.918 334.241 236.862 334.418 236.75C334.598 236.635 334.689 236.488 334.691 236.309C334.689 236.158 334.625 236.034 334.5 235.938C334.375 235.839 334.182 235.763 333.922 235.711L332.883 235.504C332.297 235.387 331.861 235.184 331.574 234.895C331.29 234.605 331.148 234.237 331.148 233.789C331.148 233.404 331.253 233.072 331.461 232.793C331.672 232.514 331.967 232.299 332.348 232.148C332.73 231.997 333.178 231.922 333.691 231.922C334.449 231.922 335.046 232.082 335.48 232.402C335.918 232.723 336.173 233.159 336.246 233.711Z"
    fill="white"
  />
  <mask
    id="mask0_465_88728"
    style="mask-type: alpha"
    maskUnits="userSpaceOnUse"
    x="312"
    y="205"
    width="21"
    height="16"
  >
    <path
      fill-rule="evenodd"
      clip-rule="evenodd"
      d="M312.794 205.233L312.672 205.355V212.69V220.024L312.794 220.146L312.917 220.269H322.645H332.373L332.495 220.146L332.618 220.024V212.69V205.355L332.495 205.233L332.373 205.11H322.645H312.917L312.794 205.233ZM319.055 206.706V207.504H316.262H313.47V206.706V205.908H316.262H319.055V206.706ZM325.437 206.706V207.504H322.645H319.852V206.706V205.908H322.645H325.437V206.706ZM331.82 206.706V207.504H329.027H326.235V206.706V205.908H329.027H331.82V206.706ZM319.055 213.886V219.471H316.262H313.47V213.886V208.301H316.262H319.055V213.886ZM325.437 213.886V219.471H322.645H319.852V213.886V208.301H322.645H325.437V213.886ZM331.82 213.886V219.471H329.027H326.235V213.886V208.301H329.027H331.82V213.886ZM315.188 210.02C315.111 210.097 315.065 210.199 315.065 210.296C315.065 210.393 315.111 210.495 315.188 210.573C315.309 210.694 315.318 210.695 316.262 210.695C317.206 210.695 317.215 210.694 317.336 210.573C317.414 210.495 317.459 210.393 317.459 210.296C317.459 210.199 317.414 210.097 317.336 210.02C317.215 209.898 317.206 209.897 316.262 209.897C315.318 209.897 315.309 209.898 315.188 210.02ZM321.57 210.02C321.493 210.097 321.448 210.199 321.448 210.296C321.448 210.393 321.493 210.495 321.57 210.573C321.692 210.694 321.701 210.695 322.645 210.695C323.589 210.695 323.598 210.694 323.719 210.573C323.796 210.495 323.842 210.393 323.842 210.296C323.842 210.199 323.796 210.097 323.719 210.02C323.598 209.898 323.589 209.897 322.645 209.897C321.701 209.897 321.692 209.898 321.57 210.02ZM327.953 210.02C327.876 210.097 327.831 210.199 327.831 210.296C327.831 210.393 327.876 210.495 327.953 210.573C328.074 210.694 328.083 210.695 329.027 210.695C329.972 210.695 329.98 210.694 330.102 210.573C330.179 210.495 330.224 210.393 330.224 210.296C330.224 210.199 330.179 210.097 330.102 210.02C329.98 209.898 329.972 209.897 329.027 209.897C328.083 209.897 328.074 209.898 327.953 210.02ZM315.188 212.413C315.111 212.49 315.065 212.592 315.065 212.69C315.065 212.787 315.111 212.889 315.188 212.966C315.309 213.087 315.318 213.088 316.262 213.088C317.206 213.088 317.215 213.087 317.336 212.966C317.414 212.889 317.459 212.787 317.459 212.69C317.459 212.592 317.414 212.49 317.336 212.413C317.215 212.292 317.206 212.291 316.262 212.291C315.318 212.291 315.309 212.292 315.188 212.413ZM321.57 212.413C321.493 212.49 321.448 212.592 321.448 212.69C321.448 212.787 321.493 212.889 321.57 212.966C321.692 213.087 321.701 213.088 322.645 213.088C323.589 213.088 323.598 213.087 323.719 212.966C323.796 212.889 323.842 212.787 323.842 212.69C323.842 212.592 323.796 212.49 323.719 212.413C323.598 212.292 323.589 212.291 322.645 212.291C321.701 212.291 321.692 212.292 321.57 212.413ZM327.953 212.413C327.876 212.49 327.831 212.592 327.831 212.69C327.831 212.787 327.876 212.889 327.953 212.966C328.074 213.087 328.083 213.088 329.027 213.088C329.972 213.088 329.98 213.087 330.102 212.966C330.179 212.889 330.224 212.787 330.224 212.69C330.224 212.592 330.179 212.49 330.102 212.413C329.98 212.292 329.972 212.291 329.027 212.291C328.083 212.291 328.074 212.292 327.953 212.413ZM315.188 214.807C315.111 214.884 315.065 214.986 315.065 215.083C315.065 215.18 315.111 215.282 315.188 215.36C315.309 215.481 315.318 215.482 316.262 215.482C317.206 215.482 317.215 215.481 317.336 215.36C317.414 215.282 317.459 215.18 317.459 215.083C317.459 214.986 317.414 214.884 317.336 214.807C317.215 214.685 317.206 214.684 316.262 214.684C315.318 214.684 315.309 214.685 315.188 214.807ZM321.57 214.807C321.493 214.884 321.448 214.986 321.448 215.083C321.448 215.18 321.493 215.282 321.57 215.36C321.692 215.481 321.701 215.482 322.645 215.482C323.589 215.482 323.598 215.481 323.719 215.36C323.796 215.282 323.842 215.18 323.842 215.083C323.842 214.986 323.796 214.884 323.719 214.807C323.598 214.685 323.589 214.684 322.645 214.684C321.701 214.684 321.692 214.685 321.57 214.807ZM327.953 214.807C327.876 214.884 327.831 214.986 327.831 215.083C327.831 215.18 327.876 215.282 327.953 215.36C328.074 215.481 328.083 215.482 329.027 215.482C329.972 215.482 329.98 215.481 330.102 215.36C330.179 215.282 330.224 215.18 330.224 215.083C330.224 214.986 330.179 214.884 330.102 214.807C329.98 214.685 329.972 214.684 329.027 214.684C328.083 214.684 328.074 214.685 327.953 214.807ZM315.188 217.2C315.111 217.277 315.065 217.379 315.065 217.476C315.065 217.574 315.111 217.676 315.188 217.753C315.309 217.874 315.318 217.875 316.262 217.875C317.206 217.875 317.215 217.874 317.336 217.753C317.414 217.676 317.459 217.574 317.459 217.476C317.459 217.379 317.414 217.277 317.336 217.2C317.215 217.079 317.206 217.078 316.262 217.078C315.318 217.078 315.309 217.079 315.188 217.2ZM321.57 217.2C321.493 217.277 321.448 217.379 321.448 217.476C321.448 217.574 321.493 217.676 321.57 217.753C321.692 217.874 321.701 217.875 322.645 217.875C323.589 217.875 323.598 217.874 323.719 217.753C323.796 217.676 323.842 217.574 323.842 217.476C323.842 217.379 323.796 217.277 323.719 217.2C323.598 217.079 323.589 217.078 322.645 217.078C321.701 217.078 321.692 217.079 321.57 217.2ZM327.953 217.2C327.876 217.277 327.831 217.379 327.831 217.476C327.831 217.574 327.876 217.676 327.953 217.753C328.074 217.874 328.083 217.875 329.027 217.875C329.972 217.875 329.98 217.874 330.102 217.753C330.179 217.676 330.224 217.574 330.224 217.476C330.224 217.379 330.179 217.277 330.102 217.2C329.98 217.079 329.972 217.078 329.027 217.078C328.083 217.078 328.074 217.079 327.953 217.2Z"
      fill="#F5F7FA"
    />
  </mask>
  <g mask="url(#mask0_465_88728)">
    <rect
      x="310.877"
      y="203.814"
      width="23.3366"
      height="17.7518"
      fill="#FF9908"
    />
  </g>
  <circle
    cx="433"
    cy="429"
    r="26"
    stroke="#7562E0"
    stroke-opacity="0.5"
    stroke-width="4"
  />
  <g filter="url(#filter3_d_465_88728)">
    <rect x="283" y="272" width="155" height="165.743" rx="21" fill="white" />
    <rect
      x="283.5"
      y="272.5"
      width="154"
      height="164.743"
      rx="20.5"
      stroke="#F2F2F2"
    />
  </g>
  <g opacity="0.3">
    <path
      opacity="0.3"
      d="M378.462 322.915C376.047 322.912 373.732 321.952 372.024 320.244C370.316 318.536 369.356 316.221 369.353 313.806V301.158H328.65C325.498 301.158 322.474 302.411 320.245 304.64C318.015 306.87 316.763 309.893 316.763 313.046V384.707C316.763 387.86 318.015 390.884 320.245 393.113C322.474 395.342 325.498 396.595 328.65 396.595H377.508C380.661 396.595 383.685 395.342 385.914 393.113C388.143 390.884 389.396 387.86 389.396 384.707V322.915H378.462Z"
      fill="#A140FF"
    />
  </g>
  <path
    d="M389.396 322.915H378.463C376.047 322.912 373.732 321.952 372.024 320.244C370.316 318.536 369.356 316.221 369.354 313.806V301.158L389.396 322.915Z"
    fill="#A140FF"
  />
  <path
    d="M398.019 376.526H342.782C338.864 376.526 335.688 379.702 335.688 383.62V400.089C335.688 404.007 338.864 407.183 342.782 407.183H398.019C401.937 407.183 405.113 404.007 405.113 400.089V383.62C405.113 379.702 401.937 376.526 398.019 376.526Z"
    fill="#A140FF"
  />
  <path
    d="M349.818 399.143C349.35 399.143 348.947 398.977 348.611 398.646C348.279 398.31 348.114 397.907 348.114 397.438C348.114 396.974 348.279 396.577 348.611 396.245C348.947 395.914 349.35 395.748 349.818 395.748C350.273 395.748 350.671 395.914 351.011 396.245C351.352 396.577 351.523 396.974 351.523 397.438C351.523 397.751 351.442 398.037 351.281 398.298C351.125 398.553 350.919 398.759 350.663 398.916C350.408 399.067 350.126 399.143 349.818 399.143ZM356.748 395.819L356.755 392.19H357.196L360.69 388.049H364.163L359.469 393.532H358.751L356.748 395.819ZM354.007 398.958V384.413H357.032V398.958H354.007ZM360.825 398.958L357.615 394.207L359.632 392.069L364.369 398.958H360.825ZM365.647 398.958V388.049H368.531V389.974H368.659C368.886 389.335 369.265 388.83 369.795 388.461C370.326 388.092 370.96 387.907 371.699 387.907C372.447 387.907 373.084 388.094 373.609 388.468C374.135 388.838 374.485 389.339 374.66 389.974H374.774C374.996 389.349 375.399 388.849 375.981 388.475C376.568 388.097 377.262 387.907 378.062 387.907C379.08 387.907 379.906 388.231 380.541 388.88C381.18 389.524 381.5 390.438 381.5 391.622V398.958H378.481V392.218C378.481 391.612 378.32 391.158 377.998 390.855C377.676 390.552 377.274 390.4 376.791 390.4C376.242 390.4 375.813 390.575 375.505 390.926C375.198 391.271 375.044 391.728 375.044 392.296V398.958H372.111V392.154C372.111 391.619 371.957 391.193 371.649 390.876C371.346 390.559 370.946 390.4 370.449 390.4C370.112 390.4 369.809 390.485 369.54 390.656C369.274 390.821 369.064 391.056 368.907 391.359C368.751 391.657 368.673 392.007 368.673 392.41V398.958H365.647ZM383.833 398.958V397.154L389.174 390.542V390.464H384.018V388.049H392.817V390.016L387.803 396.465V396.543H393.002V398.958H383.833Z"
    fill="white"
  />
  <path
    fill-rule="evenodd"
    clip-rule="evenodd"
    d="M351.912 326.033C350.295 326.225 348.909 326.883 347.837 327.968C347.181 328.63 346.759 329.288 346.416 330.182C346.15 330.874 346.132 330.987 346.1 332.111C346.069 333.194 346.085 333.384 346.279 334.158C346.897 336.631 348.642 339.812 350.991 342.751C351.893 343.879 352.28 344.261 352.523 344.261C352.767 344.261 353.155 343.878 354.042 342.762C356.453 339.731 358.086 336.786 358.725 334.319C358.928 333.532 358.964 333.241 358.964 332.357C358.964 331.091 358.857 330.627 358.307 329.507C357.954 328.788 357.793 328.567 357.182 327.956C356.385 327.162 355.623 326.682 354.643 326.357C353.735 326.056 352.724 325.936 351.912 326.033ZM353.7 327.408C354.61 327.601 355.566 328.123 356.239 328.795C357.789 330.343 358.123 332.268 357.28 334.793C356.997 335.641 355.905 337.839 355.239 338.904C354.626 339.882 352.7 342.479 352.552 342.525C352.421 342.567 351.172 340.95 350.175 339.45C348.805 337.387 347.774 335.162 347.429 333.528C346.911 331.073 348.096 328.734 350.367 327.729C351.362 327.288 352.582 327.171 353.7 327.408ZM351.893 329.328C350.989 329.512 350.058 330.238 349.622 331.1C349.401 331.538 349.384 331.633 349.384 332.508C349.384 333.384 349.4 333.478 349.623 333.919C349.929 334.522 350.544 335.138 351.128 335.425C351.547 335.631 351.665 335.65 352.523 335.65C353.394 335.65 353.494 335.634 353.923 335.416C355.547 334.592 356.203 332.681 355.416 331.07C355.075 330.371 354.331 329.711 353.594 329.452C353.183 329.308 352.306 329.243 351.893 329.328ZM353.239 330.676C353.639 330.843 354.136 331.327 354.325 331.733C354.522 332.159 354.522 332.858 354.325 333.284C353.725 334.576 352.096 334.86 351.121 333.843C350.737 333.443 350.567 333.032 350.567 332.508C350.567 332.281 350.623 331.958 350.693 331.792C350.859 331.391 351.343 330.894 351.749 330.705C352.149 330.518 352.83 330.505 353.239 330.676ZM365.153 333.4C365.022 333.531 364.915 333.717 364.915 333.814C364.915 334.041 365.34 334.467 365.567 334.467C365.794 334.467 366.22 334.041 366.22 333.814C366.22 333.587 365.794 333.161 365.567 333.161C365.471 333.161 365.285 333.269 365.153 333.4ZM338.827 333.606C338.715 333.667 338.419 333.95 338.169 334.235C335.367 337.432 333.771 340.774 333.147 344.75C332.971 345.874 332.949 348.852 333.109 350.015C333.382 352.002 334.033 354.164 334.905 355.975C335.609 357.437 335.988 358.034 336.256 358.101C336.597 358.187 336.864 358.072 337.003 357.782L337.13 357.514L336.475 356.254C335.28 353.955 334.651 352.024 334.378 349.815C334.22 348.544 334.227 346.2 334.393 345.051C334.931 341.31 336.514 337.982 339.133 335.088C339.422 334.769 339.69 334.427 339.728 334.327C339.827 334.073 339.675 333.692 339.43 333.581C339.173 333.463 339.08 333.467 338.827 333.606ZM342.923 334.372C341.888 335.059 340.395 336.555 339.394 337.907C337.821 340.031 336.701 342.819 336.384 345.401C336.275 346.29 336.275 348.756 336.384 349.649C336.5 350.602 336.889 352.18 337.244 353.135C339.353 358.805 344.27 362.778 350.241 363.636C351.631 363.835 352.578 363.873 353.705 363.772C356.307 363.54 358.679 362.806 360.72 361.604C364.474 359.392 367.264 355.689 368.284 351.565C368.679 349.965 368.706 349.703 368.704 347.485C368.702 345.491 368.688 345.3 368.481 344.33C367.654 340.464 365.615 337.112 362.688 334.806C361.944 334.22 361.623 334.152 361.334 334.519C361.038 334.895 361.106 335.057 361.833 335.706C363.111 336.848 363.389 337.124 364.003 337.854C365.575 339.725 366.723 342.082 367.191 344.395C367.345 345.157 367.524 346.412 367.524 346.727C367.524 346.863 367.359 346.872 364.883 346.872H362.241L362.189 346.281C362.008 344.259 361.599 342.359 361.005 340.781C360.308 338.928 359.978 338.485 359.476 338.727C359.355 338.786 359.203 338.927 359.139 339.041C359.032 339.232 359.047 339.307 359.329 339.979C359.808 341.125 360.319 342.675 360.511 343.567C360.72 344.536 360.917 345.943 360.919 346.485L360.92 346.872H357.059H353.197L353.154 346.496C353.103 346.039 352.877 345.784 352.523 345.784C352.17 345.784 351.944 346.039 351.892 346.496L351.85 346.872H347.988H344.126L344.128 346.485C344.129 346.271 344.181 345.711 344.244 345.24C344.485 343.443 344.93 341.835 345.634 340.216C346.131 339.074 346.154 338.938 345.892 338.676C345.76 338.544 345.592 338.466 345.438 338.466C345.118 338.466 344.875 338.786 344.45 339.768C343.564 341.812 343.069 343.832 342.862 346.24L342.808 346.872H341.059C339.122 346.872 338.794 346.934 338.699 347.316C338.609 347.672 338.726 347.934 339.031 348.061C339.244 348.151 339.725 348.178 341.06 348.178H342.809L342.86 348.729C343.104 351.345 343.701 353.675 344.65 355.713C344.855 356.154 345.023 356.546 345.023 356.585C345.023 356.623 344.812 356.697 344.554 356.748C344.296 356.8 343.47 356.99 342.717 357.17C341.553 357.449 341.329 357.481 341.215 357.388C340.948 357.169 339.887 355.671 339.448 354.893C338.632 353.447 337.944 351.464 337.672 349.77C337.51 348.767 337.537 346.04 337.719 345.039C338.357 341.519 340.147 338.332 342.684 336.199C344.15 334.967 344.222 334.854 343.833 334.392C343.572 334.081 343.368 334.076 342.923 334.372ZM367.25 335.697C366.882 335.986 366.948 336.172 368.014 337.851C369.304 339.883 370.165 342.228 370.593 344.873C370.795 346.117 370.795 348.832 370.593 350.134C370.275 352.188 369.6 354.275 368.692 356.013C367.915 357.501 367.178 358.529 365.637 360.278C365.217 360.755 365.181 361.082 365.518 361.372C365.64 361.477 365.814 361.563 365.905 361.563C366.113 361.563 366.971 360.747 367.662 359.89C369.776 357.27 371.167 354.182 371.765 350.779C371.99 349.496 372.072 346.919 371.932 345.519C371.623 342.433 370.537 339.359 368.847 336.785C368 335.496 367.735 335.315 367.25 335.697ZM351.871 352.051V355.924L351.606 355.965C351.46 355.987 350.846 356.028 350.241 356.056C349.167 356.106 347.216 356.288 346.683 356.388L346.417 356.438L345.927 355.43C344.935 353.387 344.126 350.287 344.126 348.527V348.178H347.999H351.871V352.051ZM360.92 348.501C360.92 348.99 360.69 350.647 360.506 351.478C360.252 352.628 359.657 354.322 359.119 355.43L358.63 356.438L358.363 356.388C357.831 356.288 355.88 356.106 354.806 356.056C354.201 356.028 353.586 355.987 353.44 355.965L353.175 355.924V352.051V348.178H357.048H360.92V348.501ZM367.524 348.323C367.524 349.112 367.12 351.163 366.734 352.329C366.195 353.962 365.056 356.015 364.083 357.107L363.727 357.507L362.344 357.173C361.583 356.989 360.75 356.797 360.492 356.747C360.235 356.696 360.024 356.627 360.024 356.594C360.024 356.56 360.206 356.125 360.428 355.628C361.412 353.429 361.942 351.348 362.186 348.729L362.238 348.178H364.881C367.359 348.178 367.524 348.187 367.524 348.323ZM351.871 359.808C351.871 361.222 351.842 362.379 351.807 362.379C351.658 362.379 350.295 361.214 349.422 360.341C348.591 359.509 347.224 357.837 347.224 357.652C347.224 357.547 349.957 357.273 351.239 357.249L351.871 357.237V359.808ZM354.969 357.318C356.707 357.445 357.822 357.579 357.822 357.66C357.822 357.91 355.962 360.089 355.031 360.93C354.235 361.649 353.333 362.379 353.241 362.379C353.205 362.379 353.175 361.222 353.175 359.808V357.237L353.522 357.238C353.713 357.238 354.364 357.274 354.969 357.318ZM346.332 358.638C347.037 359.626 347.644 360.344 348.69 361.43C349.442 362.211 349.457 362.234 349.181 362.178C348 361.939 345.623 360.943 344.471 360.206C343.863 359.817 342.833 359.027 342.588 358.762L342.396 358.554L342.752 358.458C343.175 358.342 345.512 357.823 345.647 357.815C345.699 357.811 346.007 358.182 346.332 358.638ZM361.124 358.191C361.842 358.348 362.477 358.504 362.537 358.537C362.752 358.658 361.262 359.829 359.901 360.608C359.079 361.079 358.153 361.476 357.029 361.839C355.444 362.352 355.46 362.361 356.358 361.43C357.438 360.31 358.158 359.447 358.746 358.567C359.332 357.691 359.048 357.736 361.124 358.191ZM337.761 359.516C337.63 359.648 337.522 359.834 337.522 359.931C337.522 360.158 337.948 360.584 338.175 360.584C338.402 360.584 338.827 360.158 338.827 359.931C338.827 359.704 338.402 359.278 338.175 359.278C338.078 359.278 337.892 359.385 337.761 359.516Z"
    fill="#A140FF"
  />
  <g filter="url(#filter4_d_465_88728)">
    <rect x="164" y="355" width="101" height="108" rx="21" fill="white" />
    <rect
      x="164.5"
      y="355.5"
      width="100"
      height="107"
      rx="20.5"
      stroke="#F2F2F2"
    />
  </g>
  <g opacity="0.3">
    <path
      opacity="0.3"
      d="M226.204 388.177C224.631 388.175 223.122 387.549 222.009 386.437C220.896 385.324 220.27 383.815 220.269 382.241V374H193.746C191.692 374 189.721 374.816 188.269 376.269C186.816 377.721 186 379.692 186 381.746V428.441C186 430.496 186.816 432.466 188.269 433.919C189.721 435.371 191.692 436.187 193.746 436.187H225.582C227.637 436.187 229.607 435.371 231.06 433.919C232.512 432.466 233.329 430.496 233.329 428.441V388.177H226.204Z"
      fill="#00C650"
    />
  </g>
  <path
    d="M233.328 388.177H226.204C224.63 388.175 223.122 387.549 222.009 386.437C220.896 385.324 220.27 383.815 220.269 382.241V374L233.328 388.177Z"
    fill="#00C650"
  />
  <path
    d="M233.015 423H201.985C199.784 423 198 425.072 198 427.628V438.372C198 440.928 199.784 443 201.985 443H233.015C235.216 443 237 440.928 237 438.372V427.628C237 425.072 235.216 423 233.015 423Z"
    fill="#00C650"
  />
  <path
    d="M207.083 438.129C206.755 438.129 206.473 438.013 206.238 437.781C206.006 437.546 205.89 437.264 205.89 436.936C205.89 436.611 206.006 436.333 206.238 436.101C206.473 435.869 206.755 435.753 207.083 435.753C207.401 435.753 207.68 435.869 207.918 436.101C208.157 436.333 208.276 436.611 208.276 436.936C208.276 437.155 208.22 437.355 208.107 437.538C207.998 437.717 207.854 437.861 207.675 437.97C207.496 438.076 207.299 438.129 207.083 438.129ZM211.785 430.364L213.187 433.033L214.624 430.364H216.796L214.584 434.182L216.856 438H214.693L213.187 435.36L211.705 438H209.518L211.785 434.182L209.597 430.364H211.785ZM220.172 427.818V438H218.054V427.818H220.172ZM228.222 432.541L226.283 432.661C226.25 432.495 226.179 432.346 226.07 432.213C225.96 432.077 225.816 431.969 225.637 431.89C225.461 431.807 225.251 431.766 225.006 431.766C224.678 431.766 224.401 431.835 224.175 431.974C223.95 432.11 223.837 432.293 223.837 432.521C223.837 432.704 223.91 432.858 224.056 432.984C224.202 433.11 224.452 433.211 224.807 433.287L226.189 433.565C226.931 433.718 227.485 433.963 227.849 434.301C228.214 434.639 228.396 435.083 228.396 435.634C228.396 436.134 228.249 436.573 227.954 436.951C227.662 437.329 227.261 437.624 226.751 437.836C226.244 438.045 225.659 438.149 224.996 438.149C223.985 438.149 223.179 437.939 222.58 437.518C221.983 437.094 221.633 436.517 221.531 435.788L223.614 435.678C223.677 435.987 223.829 436.222 224.071 436.384C224.313 436.543 224.623 436.623 225.001 436.623C225.372 436.623 225.67 436.552 225.896 436.409C226.124 436.263 226.24 436.076 226.244 435.847C226.24 435.655 226.159 435.498 226 435.375C225.841 435.249 225.596 435.153 225.264 435.087L223.942 434.823C223.196 434.674 222.641 434.415 222.276 434.048C221.915 433.68 221.734 433.211 221.734 432.641C221.734 432.15 221.867 431.728 222.132 431.373C222.401 431.018 222.777 430.745 223.261 430.553C223.748 430.36 224.318 430.264 224.971 430.264C225.935 430.264 226.694 430.468 227.248 430.876C227.805 431.283 228.129 431.839 228.222 432.541Z"
    fill="white"
  />
  <mask
    id="mask1_465_88728"
    style="mask-type: alpha"
    maskUnits="userSpaceOnUse"
    x="196"
    y="395"
    width="26"
    height="20"
  >
    <path
      fill-rule="evenodd"
      clip-rule="evenodd"
      d="M196.16 395.16L196 395.319V404.88V414.441L196.16 414.6L196.319 414.76H209H221.681L221.84 414.6L222 414.441V404.88V395.319L221.84 395.16L221.681 395H209H196.319L196.16 395.16ZM204.32 397.08V398.12H200.68H197.04V397.08V396.04H200.68H204.32V397.08ZM212.64 397.08V398.12H209H205.36V397.08V396.04H209H212.64V397.08ZM220.96 397.08V398.12H217.32H213.68V397.08V396.04H217.32H220.96V397.08ZM204.32 406.44V413.72H200.68H197.04V406.44V399.16H200.68H204.32V406.44ZM212.64 406.44V413.72H209H205.36V406.44V399.16H209H212.64V406.44ZM220.96 406.44V413.72H217.32H213.68V406.44V399.16H217.32H220.96V406.44ZM199.28 401.4C199.179 401.5 199.12 401.633 199.12 401.76C199.12 401.887 199.179 402.02 199.28 402.12C199.438 402.279 199.449 402.28 200.68 402.28C201.911 402.28 201.922 402.279 202.08 402.12C202.181 402.02 202.24 401.887 202.24 401.76C202.24 401.633 202.181 401.5 202.08 401.4C201.922 401.241 201.911 401.24 200.68 401.24C199.449 401.24 199.438 401.241 199.28 401.4ZM207.6 401.4C207.499 401.5 207.44 401.633 207.44 401.76C207.44 401.887 207.499 402.02 207.6 402.12C207.758 402.279 207.769 402.28 209 402.28C210.231 402.28 210.242 402.279 210.4 402.12C210.501 402.02 210.56 401.887 210.56 401.76C210.56 401.633 210.501 401.5 210.4 401.4C210.242 401.241 210.231 401.24 209 401.24C207.769 401.24 207.758 401.241 207.6 401.4ZM215.92 401.4C215.819 401.5 215.76 401.633 215.76 401.76C215.76 401.887 215.819 402.02 215.92 402.12C216.078 402.279 216.089 402.28 217.32 402.28C218.551 402.28 218.562 402.279 218.72 402.12C218.821 402.02 218.88 401.887 218.88 401.76C218.88 401.633 218.821 401.5 218.72 401.4C218.562 401.241 218.551 401.24 217.32 401.24C216.089 401.24 216.078 401.241 215.92 401.4ZM199.28 404.52C199.179 404.62 199.12 404.753 199.12 404.88C199.12 405.007 199.179 405.14 199.28 405.24C199.438 405.399 199.449 405.4 200.68 405.4C201.911 405.4 201.922 405.399 202.08 405.24C202.181 405.14 202.24 405.007 202.24 404.88C202.24 404.753 202.181 404.62 202.08 404.52C201.922 404.361 201.911 404.36 200.68 404.36C199.449 404.36 199.438 404.361 199.28 404.52ZM207.6 404.52C207.499 404.62 207.44 404.753 207.44 404.88C207.44 405.007 207.499 405.14 207.6 405.24C207.758 405.399 207.769 405.4 209 405.4C210.231 405.4 210.242 405.399 210.4 405.24C210.501 405.14 210.56 405.007 210.56 404.88C210.56 404.753 210.501 404.62 210.4 404.52C210.242 404.361 210.231 404.36 209 404.36C207.769 404.36 207.758 404.361 207.6 404.52ZM215.92 404.52C215.819 404.62 215.76 404.753 215.76 404.88C215.76 405.007 215.819 405.14 215.92 405.24C216.078 405.399 216.089 405.4 217.32 405.4C218.551 405.4 218.562 405.399 218.72 405.24C218.821 405.14 218.88 405.007 218.88 404.88C218.88 404.753 218.821 404.62 218.72 404.52C218.562 404.361 218.551 404.36 217.32 404.36C216.089 404.36 216.078 404.361 215.92 404.52ZM199.28 407.64C199.179 407.74 199.12 407.873 199.12 408C199.12 408.127 199.179 408.26 199.28 408.36C199.438 408.519 199.449 408.52 200.68 408.52C201.911 408.52 201.922 408.519 202.08 408.36C202.181 408.26 202.24 408.127 202.24 408C202.24 407.873 202.181 407.74 202.08 407.64C201.922 407.481 201.911 407.48 200.68 407.48C199.449 407.48 199.438 407.481 199.28 407.64ZM207.6 407.64C207.499 407.74 207.44 407.873 207.44 408C207.44 408.127 207.499 408.26 207.6 408.36C207.758 408.519 207.769 408.52 209 408.52C210.231 408.52 210.242 408.519 210.4 408.36C210.501 408.26 210.56 408.127 210.56 408C210.56 407.873 210.501 407.74 210.4 407.64C210.242 407.481 210.231 407.48 209 407.48C207.769 407.48 207.758 407.481 207.6 407.64ZM215.92 407.64C215.819 407.74 215.76 407.873 215.76 408C215.76 408.127 215.819 408.26 215.92 408.36C216.078 408.519 216.089 408.52 217.32 408.52C218.551 408.52 218.562 408.519 218.72 408.36C218.821 408.26 218.88 408.127 218.88 408C218.88 407.873 218.821 407.74 218.72 407.64C218.562 407.481 218.551 407.48 217.32 407.48C216.089 407.48 216.078 407.481 215.92 407.64ZM199.28 410.76C199.179 410.86 199.12 410.993 199.12 411.12C199.12 411.247 199.179 411.38 199.28 411.48C199.438 411.639 199.449 411.64 200.68 411.64C201.911 411.64 201.922 411.639 202.08 411.48C202.181 411.38 202.24 411.247 202.24 411.12C202.24 410.993 202.181 410.86 202.08 410.76C201.922 410.601 201.911 410.6 200.68 410.6C199.449 410.6 199.438 410.601 199.28 410.76ZM207.6 410.76C207.499 410.86 207.44 410.993 207.44 411.12C207.44 411.247 207.499 411.38 207.6 411.48C207.758 411.639 207.769 411.64 209 411.64C210.231 411.64 210.242 411.639 210.4 411.48C210.501 411.38 210.56 411.247 210.56 411.12C210.56 410.993 210.501 410.86 210.4 410.76C210.242 410.601 210.231 410.6 209 410.6C207.769 410.6 207.758 410.601 207.6 410.76ZM215.92 410.76C215.819 410.86 215.76 410.993 215.76 411.12C215.76 411.247 215.819 411.38 215.92 411.48C216.078 411.639 216.089 411.64 217.32 411.64C218.551 411.64 218.562 411.639 218.72 411.48C218.821 411.38 218.88 411.247 218.88 411.12C218.88 410.993 218.821 410.86 218.72 410.76C218.562 410.601 218.551 410.6 217.32 410.6C216.089 410.6 216.078 410.601 215.92 410.76Z"
      fill="#F5F7FA"
    />
  </mask>
  <g mask="url(#mask1_465_88728)">
    <rect x="193.66" y="393.31" width="30.42" height="23.14" fill="#00C650" />
  </g>
  <defs>
    <filter
      id="filter0_b_465_88728"
      x="-140.126"
      y="-140.126"
      width="855.252"
      height="950.252"
      filterUnits="userSpaceOnUse"
      color-interpolation-filters="sRGB"
    >
      <feFlood flood-opacity="0" result="BackgroundImageFix" />
      <feGaussianBlur in="BackgroundImageFix" stdDeviation="70.063" />
      <feComposite
        in2="SourceAlpha"
        operator="in"
        result="effect1_backgroundBlur_465_88728"
      />
      <feBlend
        mode="normal"
        in="SourceGraphic"
        in2="effect1_backgroundBlur_465_88728"
        result="shape"
      />
    </filter>
    <filter
      id="filter1_d_465_88728"
      x="81"
      y="152.713"
      width="234"
      height="243.287"
      filterUnits="userSpaceOnUse"
      color-interpolation-filters="sRGB"
    >
      <feFlood flood-opacity="0" result="BackgroundImageFix" />
      <feColorMatrix
        in="SourceAlpha"
        type="matrix"
        values="0 0 0 0 0 0 0 0 0 0 0 0 0 0 0 0 0 0 127 0"
        result="hardAlpha"
      />
      <feOffset dy="10" />
      <feGaussianBlur stdDeviation="25" />
      <feComposite in2="hardAlpha" operator="out" />
      <feColorMatrix
        type="matrix"
        values="0 0 0 0 0 0 0 0 0 0 0 0 0 0 0 0 0 0 0.05 0"
      />
      <feBlend
        mode="normal"
        in2="BackgroundImageFix"
        result="effect1_dropShadow_465_88728"
      />
      <feBlend
        mode="normal"
        in="SourceGraphic"
        in2="effect1_dropShadow_465_88728"
        result="shape"
      />
    </filter>
    <filter
      id="filter2_d_465_88728"
      x="238"
      y="134"
      width="177.554"
      height="182.929"
      filterUnits="userSpaceOnUse"
      color-interpolation-filters="sRGB"
    >
      <feFlood flood-opacity="0" result="BackgroundImageFix" />
      <feColorMatrix
        in="SourceAlpha"
        type="matrix"
        values="0 0 0 0 0 0 0 0 0 0 0 0 0 0 0 0 0 0 127 0"
        result="hardAlpha"
      />
      <feOffset dy="10" />
      <feGaussianBlur stdDeviation="25" />
      <feComposite in2="hardAlpha" operator="out" />
      <feColorMatrix
        type="matrix"
        values="0 0 0 0 0 0 0 0 0 0 0 0 0 0 0 0 0 0 0.05 0"
      />
      <feBlend
        mode="normal"
        in2="BackgroundImageFix"
        result="effect1_dropShadow_465_88728"
      />
      <feBlend
        mode="normal"
        in="SourceGraphic"
        in2="effect1_dropShadow_465_88728"
        result="shape"
      />
    </filter>
    <filter
      id="filter3_d_465_88728"
      x="233"
      y="232"
      width="255"
      height="265.743"
      filterUnits="userSpaceOnUse"
      color-interpolation-filters="sRGB"
    >
      <feFlood flood-opacity="0" result="BackgroundImageFix" />
      <feColorMatrix
        in="SourceAlpha"
        type="matrix"
        values="0 0 0 0 0 0 0 0 0 0 0 0 0 0 0 0 0 0 127 0"
        result="hardAlpha"
      />
      <feOffset dy="10" />
      <feGaussianBlur stdDeviation="25" />
      <feComposite in2="hardAlpha" operator="out" />
      <feColorMatrix
        type="matrix"
        values="0 0 0 0 0 0 0 0 0 0 0 0 0 0 0 0 0 0 0.05 0"
      />
      <feBlend
        mode="normal"
        in2="BackgroundImageFix"
        result="effect1_dropShadow_465_88728"
      />
      <feBlend
        mode="normal"
        in="SourceGraphic"
        in2="effect1_dropShadow_465_88728"
        result="shape"
      />
    </filter>
    <filter
      id="filter4_d_465_88728"
      x="114"
      y="315"
      width="201"
      height="208"
      filterUnits="userSpaceOnUse"
      color-interpolation-filters="sRGB"
    >
      <feFlood flood-opacity="0" result="BackgroundImageFix" />
      <feColorMatrix
        in="SourceAlpha"
        type="matrix"
        values="0 0 0 0 0 0 0 0 0 0 0 0 0 0 0 0 0 0 127 0"
        result="hardAlpha"
      />
      <feOffset dy="10" />
      <feGaussianBlur stdDeviation="25" />
      <feComposite in2="hardAlpha" operator="out" />
      <feColorMatrix
        type="matrix"
        values="0 0 0 0 0 0 0 0 0 0 0 0 0 0 0 0 0 0 0.05 0"
      />
      <feBlend
        mode="normal"
        in2="BackgroundImageFix"
        result="effect1_dropShadow_465_88728"
      />
      <feBlend
        mode="normal"
        in="SourceGraphic"
        in2="effect1_dropShadow_465_88728"
        result="shape"
      />
    </filter>
  </defs>
</svg>
