<svg width="24" height="25" viewBox="0 0 24 25" fill="none" xmlns="http://www.w3.org/2000/svg">
<path d="M12 5.5L11.2929 4.79289L12 4.08579L12.7071 4.79289L12 5.5ZM13 14.5C13 15.0523 12.5523 15.5 12 15.5C11.4477 15.5 11 15.0523 11 14.5L13 14.5ZM6.29289 9.79289L11.2929 4.79289L12.7071 6.20711L7.70711 11.2071L6.29289 9.79289ZM12.7071 4.79289L17.7071 9.79289L16.2929 11.2071L11.2929 6.20711L12.7071 4.79289ZM13 5.5L13 14.5L11 14.5L11 5.5L13 5.5Z" fill="white"/>
<path d="M5 16.5L5 17.5C5 18.6046 5.89543 19.5 7 19.5L17 19.5C18.1046 19.5 19 18.6046 19 17.5V16.5" stroke="white" stroke-width="2"/>
</svg>
