<svg width="25" height="26" viewBox="0 0 25 26" fill="none" xmlns="http://www.w3.org/2000/svg">
<path d="M24.4337 13.2678C24.4337 12.2771 24.3533 11.5541 24.1793 10.8044H12.8662V15.276H19.5067C19.3729 16.3872 18.6499 18.0608 17.0433 19.1853L17.0208 19.335L20.5978 22.1061L20.8456 22.1308C23.1216 20.0288 24.4337 16.9361 24.4337 13.2678Z" fill="#4285F4"/>
<path d="M12.8658 25.0495C16.1191 25.0495 18.8502 23.9784 20.8451 22.1308L17.0429 19.1853C16.0254 19.8949 14.6597 20.3903 12.8658 20.3903C9.67937 20.3903 6.97496 18.2884 6.01091 15.3831L5.86961 15.3951L2.1502 18.2736L2.10156 18.4088C4.083 22.345 8.15305 25.0495 12.8658 25.0495Z" fill="#34A853"/>
<path d="M6.011 15.3831C5.75663 14.6334 5.60941 13.83 5.60941 13C5.60941 12.1699 5.75663 11.3666 5.99762 10.6169L5.99088 10.4572L2.22487 7.5325L2.10165 7.59111C1.285 9.2245 0.816406 11.0587 0.816406 13C0.816406 14.9413 1.285 16.7754 2.10165 18.4088L6.011 15.3831Z" fill="#FBBC05"/>
<path d="M12.8658 5.60968C15.1283 5.60968 16.6546 6.58701 17.5248 7.40375L20.9254 4.08345C18.8369 2.14215 16.1191 0.950592 12.8658 0.950592C8.15305 0.950592 4.083 3.655 2.10156 7.59112L5.99753 10.6169C6.97496 7.71166 9.67937 5.60968 12.8658 5.60968Z" fill="#EB4335"/>
</svg>
