<svg width="62" height="70" viewBox="0 0 62 70" fill="none" xmlns="http://www.w3.org/2000/svg">
<g opacity="0.3">
<path opacity="0.3" d="M43.1155 14.1767C41.4278 14.1752 39.8097 13.5493 38.6163 12.4365C37.423 11.3237 36.7518 9.81488 36.7501 8.24116V0H8.30703C6.10388 0 3.99094 0.816126 2.43308 2.2688C0.875221 3.72147 0 5.69167 0 7.74606V54.4413C0 56.4957 0.875221 58.466 2.43308 59.9187C3.99094 61.3713 6.10388 62.1875 8.30703 62.1875H42.4486C44.6518 62.1875 46.7647 61.3713 48.3226 59.9187C49.8804 58.466 50.7557 56.4957 50.7557 54.4413V14.1767H43.1155Z" fill="#A140FF"/>
</g>
<path d="M50.7555 14.1767H43.1153C41.4276 14.1752 39.8096 13.5493 38.6162 12.4365C37.4228 11.3237 36.7516 9.81488 36.75 8.24116V0L50.7555 14.1767Z" fill="#A140FF"/>
<path d="M56.7815 49.1104H18.1823C15.4442 49.1104 13.2246 51.1801 13.2246 53.7332V64.4644C13.2246 67.0175 15.4442 69.0872 18.1823 69.0872H56.7815C59.5195 69.0872 61.7391 67.0175 61.7391 64.4644V53.7332C61.7391 51.1801 59.5195 49.1104 56.7815 49.1104Z" fill="#A140FF"/>
<path d="M23.0746 64.1729C22.7464 64.1729 22.4647 64.0569 22.2294 63.8249C21.9974 63.5896 21.8814 63.3078 21.8814 62.9797C21.8814 62.6549 21.9974 62.3765 22.2294 62.1445C22.4647 61.9125 22.7464 61.7965 23.0746 61.7965C23.3927 61.7965 23.6711 61.9125 23.9098 62.1445C24.1484 62.3765 24.2677 62.6549 24.2677 62.9797C24.2677 63.1985 24.2114 63.399 24.0987 63.5813C23.9893 63.7603 23.8451 63.9044 23.6662 64.0138C23.4872 64.1199 23.29 64.1729 23.0746 64.1729ZM27.9256 61.8462L27.9306 59.3057H28.2388L30.6848 56.4073H33.1159L29.8297 60.2453H29.3276L27.9256 61.8462ZM26.0065 64.0436V53.8618H28.1244V64.0436H26.0065ZM30.7793 64.0436L28.5321 60.7176L29.944 59.2212L33.2601 64.0436H30.7793ZM34.155 64.0436V56.4073H36.1735V57.7546H36.2629C36.422 57.3071 36.6872 56.9542 37.0584 56.6956C37.4296 56.4371 37.8737 56.3078 38.3908 56.3078C38.9145 56.3078 39.3602 56.4388 39.7281 56.7006C40.096 56.9591 40.3413 57.3104 40.4639 57.7546H40.5435C40.6993 57.3171 40.981 56.9674 41.3887 56.7056C41.7996 56.4404 42.2852 56.3078 42.8453 56.3078C43.5579 56.3078 44.1363 56.5349 44.5804 56.989C45.0279 57.4397 45.2516 58.0794 45.2516 58.908V64.0436H43.1387V59.3256C43.1387 58.9014 43.026 58.5832 42.8006 58.3711C42.5752 58.1589 42.2935 58.0529 41.9554 58.0529C41.5709 58.0529 41.271 58.1755 41.0556 58.4208C40.8401 58.6627 40.7324 58.9826 40.7324 59.3803V64.0436H38.6791V59.2809C38.6791 58.9063 38.5714 58.608 38.356 58.386C38.1439 58.1639 37.8638 58.0529 37.5158 58.0529C37.2805 58.0529 37.0683 58.1125 36.8794 58.2319C36.6938 58.3479 36.5463 58.5119 36.4369 58.724C36.3276 58.9328 36.2729 59.1781 36.2729 59.4598V64.0436H34.155ZM46.8847 64.0436V62.7809L50.6234 58.1523V58.0976H47.014V56.4073H53.1738V57.7844L49.6639 62.2986V62.3533H53.3031V64.0436H46.8847Z" fill="white"/>
<path fill-rule="evenodd" clip-rule="evenodd" d="M24.4985 15.067C23.3443 15.2042 22.3554 15.6737 21.5896 16.4481C21.1218 16.9212 20.8205 17.3908 20.5755 18.029C20.386 18.5227 20.3728 18.6031 20.3498 19.4056C20.3276 20.179 20.3394 20.3143 20.4778 20.8672C20.9191 22.6321 22.1644 24.903 23.841 27.0004C24.4847 27.8058 24.7612 28.0782 24.9349 28.0782C25.1089 28.0782 25.3861 27.8047 26.0192 27.0086C27.7399 24.8448 28.9054 22.743 29.3615 20.9815C29.5068 20.4202 29.5322 20.2121 29.5322 19.5811C29.5322 18.6777 29.4558 18.3461 29.0635 17.5469C28.8116 17.0339 28.6968 16.8758 28.26 16.4401C27.6913 15.8728 27.1474 15.5302 26.4479 15.2985C25.7996 15.0838 25.0782 14.9981 24.4985 15.067ZM25.775 16.0485C26.4248 16.1864 27.1071 16.5591 27.5872 17.0385C28.6936 18.1435 28.932 19.5176 28.33 21.3205C28.128 21.9255 27.3491 23.494 26.8731 24.2542C26.436 24.9524 25.061 26.8062 24.9555 26.8395C24.8617 26.869 23.9701 25.7153 23.2588 24.6441C22.2811 23.1717 21.5447 21.5838 21.2986 20.4175C20.9289 18.6649 21.7745 16.9954 23.3955 16.2777C24.106 15.9631 24.9768 15.8792 25.775 16.0485ZM24.4851 17.4189C23.8399 17.5504 23.1756 18.0689 22.8642 18.684C22.706 18.9967 22.6945 19.0646 22.6945 19.6893C22.6945 20.3146 22.7058 20.3817 22.8651 20.6964C23.0828 21.1269 23.5219 21.5665 23.939 21.7715C24.2381 21.9186 24.3222 21.9322 24.9349 21.9322C25.5565 21.9322 25.6276 21.9203 25.934 21.7648C27.0933 21.1768 27.5619 19.8127 26.9998 18.6625C26.7561 18.164 26.2255 17.6929 25.6993 17.5078C25.406 17.4047 24.7801 17.3588 24.4851 17.4189ZM25.446 18.3814C25.7314 18.5004 26.0862 18.8459 26.2208 19.1359C26.362 19.4399 26.362 19.9387 26.2208 20.2427C25.7927 21.165 24.6296 21.3682 23.9339 20.6423C23.6603 20.3567 23.5383 20.0628 23.5383 19.6893C23.5383 19.5271 23.5789 19.2968 23.6284 19.1777C23.7473 18.8919 24.0925 18.5368 24.3821 18.402C24.6681 18.269 25.1538 18.2595 25.446 18.3814ZM33.9503 20.3256C33.8568 20.4193 33.7802 20.5524 33.7802 20.6214C33.7802 20.7836 34.0838 21.0874 34.2458 21.0874C34.4078 21.0874 34.7113 20.7836 34.7113 20.6214C34.7113 20.4592 34.4078 20.1553 34.2458 20.1553C34.1768 20.1553 34.0439 20.232 33.9503 20.3256ZM15.1585 20.4727C15.0785 20.5165 14.8673 20.7186 14.6892 20.9218C12.689 23.2039 11.5496 25.5896 11.1043 28.4277C10.9785 29.2299 10.963 31.3555 11.0769 32.1852C11.2717 33.6035 11.7369 35.1472 12.359 36.4395C12.8616 37.4834 13.1322 37.9092 13.3238 37.9573C13.5665 38.0183 13.7575 37.9365 13.8563 37.7293L13.9473 37.5382L13.4796 36.6385C12.6269 34.9978 12.178 33.6197 11.9826 32.0427C11.8701 31.1352 11.8754 29.4621 11.9935 28.6422C12.3778 25.9716 13.5079 23.5962 15.377 21.5306C15.5831 21.3029 15.7743 21.0585 15.802 20.9877C15.8727 20.8064 15.7642 20.5344 15.5893 20.4547C15.4059 20.371 15.3392 20.3737 15.1585 20.4727ZM18.0822 21.0195C17.3437 21.51 16.2779 22.5775 15.563 23.5428C14.4402 25.0588 13.6411 27.049 13.4151 28.8922C13.3373 29.5267 13.337 31.2871 13.4146 31.9246C13.4974 32.6046 13.7756 33.7309 14.029 34.4125C15.534 38.4598 19.0435 41.2955 23.3055 41.9079C24.2978 42.0504 24.9743 42.077 25.7787 42.0052C27.6357 41.8393 29.3288 41.316 30.7858 40.4576C33.4652 38.879 35.4568 36.2356 36.1846 33.2921C36.4669 32.15 36.4863 31.9625 36.4846 30.3793C36.4832 28.9561 36.4736 28.8201 36.3255 28.1279C35.7352 25.3683 34.2799 22.9754 32.1906 21.3293C31.6597 20.911 31.4299 20.8623 31.224 21.1244C31.0131 21.3929 31.0616 21.5082 31.5804 21.9719C32.4923 22.7868 32.6912 22.9837 33.1292 23.5051C34.2511 24.8405 35.071 26.523 35.4045 28.1739C35.5144 28.7178 35.6424 29.6139 35.6424 29.8389C35.6424 29.9359 35.5245 29.9424 33.757 29.9424H31.8717L31.834 29.52C31.7053 28.0772 31.4135 26.721 30.9894 25.5945C30.4914 24.2714 30.2564 23.9557 29.898 24.1281C29.8111 24.1699 29.7028 24.2708 29.6572 24.3522C29.5809 24.4884 29.5917 24.542 29.7927 25.0221C30.1351 25.8402 30.4997 26.9461 30.6369 27.583C30.7858 28.2743 30.9261 29.2787 30.9276 29.6656L30.9288 29.9424H28.1722H25.4156L25.3853 29.6737C25.3486 29.3476 25.1873 29.1656 24.9349 29.1656C24.6825 29.1656 24.5212 29.3476 24.4845 29.6737L24.4542 29.9424H21.6976H18.9411L18.9422 29.6656C18.9428 29.5134 18.9803 29.1137 19.0254 28.7772C19.1975 27.4948 19.5151 26.3466 20.0177 25.1912C20.3722 24.3762 20.3884 24.2788 20.2013 24.0915C20.1075 23.9976 19.9872 23.942 19.8777 23.942C19.6491 23.942 19.4756 24.1705 19.172 24.8712C18.54 26.3299 18.1863 27.772 18.0388 29.4909L18 29.9424H16.752C15.3689 29.9424 15.1354 29.9862 15.067 30.2589C15.0032 30.5133 15.0864 30.6998 15.3042 30.7909C15.4566 30.8547 15.7998 30.8745 16.7523 30.8745H18.0007L18.0374 31.2677C18.2117 33.1346 18.6379 34.7977 19.3149 36.2527C19.4614 36.5674 19.5812 36.8473 19.5812 36.8748C19.5812 36.9023 19.4306 36.9549 19.2466 36.9917C19.0626 37.0286 18.4724 37.164 17.9352 37.2926C17.1043 37.4916 16.9442 37.5149 16.8629 37.4483C16.6725 37.2922 15.9154 36.223 15.6018 35.6671C15.0194 34.635 14.5286 33.2196 14.3339 32.0105C14.2186 31.2947 14.238 29.3482 14.3675 28.6339C14.8231 26.1213 16.1011 23.8462 17.9119 22.3238C18.9582 21.444 19.0094 21.3635 18.7322 21.0337C18.5456 20.8116 18.4 20.8085 18.0822 21.0195ZM35.4466 21.9655C35.1844 22.172 35.2313 22.3041 35.9922 23.503C36.9126 24.9531 37.5276 26.6274 37.8333 28.5151C37.9771 29.4033 37.9769 31.3411 37.8331 32.2705C37.6061 33.7365 37.1244 35.226 36.476 36.467C35.9212 37.5288 35.3957 38.2625 34.2958 39.5111C33.9957 39.8517 33.9702 40.0853 34.2102 40.292C34.2973 40.367 34.4218 40.4284 34.4868 40.4284C34.6354 40.4284 35.2474 39.8457 35.7409 39.2342C37.25 37.3642 38.2428 35.1597 38.6693 32.7312C38.8303 31.8151 38.8888 29.9757 38.7888 28.9764C38.5686 26.7738 37.7933 24.579 36.5865 22.742C35.9821 21.8218 35.7928 21.6928 35.4466 21.9655ZM24.4694 33.639V36.4035L24.2803 36.4325C24.1763 36.4485 23.7376 36.4779 23.3055 36.4979C22.5389 36.5333 21.1464 36.6631 20.7662 36.7346L20.5762 36.7702L20.2267 36.0506C19.5185 34.5924 18.9411 32.3793 18.9411 31.1236V30.8745H21.7052H24.4694V33.639ZM30.9288 31.1045C30.9288 31.454 30.7642 32.6363 30.6329 33.2298C30.4514 34.0509 30.027 35.2601 29.6431 36.0506L29.2937 36.7702L29.1036 36.7346C28.7234 36.6631 27.3309 36.5333 26.5643 36.4979C26.1322 36.4779 25.6936 36.4485 25.5896 36.4325L25.4005 36.4035V33.639V30.8745H28.1646H30.9288V31.1045ZM35.6424 30.9779C35.6424 31.541 35.354 33.0047 35.0788 33.8376C34.694 35.0027 33.8807 36.4681 33.1864 37.2476L32.9322 37.533L31.945 37.2947C31.4021 37.1637 30.8073 37.0268 30.6233 36.9906C30.4392 36.9545 30.2887 36.9052 30.2887 36.8814C30.2887 36.8574 30.4187 36.5471 30.5775 36.1919C31.2795 34.6221 31.6579 33.137 31.8324 31.2677L31.8691 30.8745H33.7558C35.5244 30.8745 35.6424 30.8809 35.6424 30.9779ZM24.4694 39.1759C24.4694 40.1852 24.4487 41.011 24.4235 41.011C24.3176 41.011 23.3443 40.1791 22.7216 39.5561C22.1278 38.9621 21.1524 37.7689 21.1524 37.6366C21.1524 37.5617 23.1034 37.366 24.0184 37.3492L24.4694 37.3409V39.1759ZM26.6807 37.3986C27.921 37.4891 28.7175 37.5844 28.7175 37.6422C28.7175 37.8208 27.3896 39.3765 26.7249 39.9766C26.1568 40.4896 25.5126 41.011 25.447 41.011C25.4214 41.011 25.4005 40.1852 25.4005 39.1759V37.3409L25.6478 37.341C25.7838 37.3411 26.2486 37.367 26.6807 37.3986ZM20.516 38.3404C21.0192 39.046 21.4519 39.5586 22.1986 40.3337C22.7356 40.8912 22.7464 40.9076 22.549 40.8676C21.7065 40.6968 20.0094 39.9861 19.1871 39.4597C18.7531 39.1818 18.0181 38.6183 17.8435 38.4295L17.7062 38.2809L17.9599 38.2118C18.2625 38.1294 19.9304 37.7591 20.0267 37.753C20.0637 37.7506 20.2839 38.015 20.516 38.3404ZM31.0743 38.0214C31.5864 38.1336 32.0402 38.2448 32.0828 38.2687C32.2363 38.3546 31.1723 39.1904 30.2014 39.7466C29.6146 40.0828 28.9533 40.3663 28.1514 40.6256C27.0196 40.9916 27.0309 40.9984 27.6719 40.3337C28.4427 39.5343 28.9569 38.918 29.377 38.2897C29.795 37.6644 29.5919 37.6965 31.0743 38.0214ZM14.3975 38.9676C14.304 39.0612 14.2274 39.1943 14.2274 39.2633C14.2274 39.4255 14.531 39.7294 14.693 39.7294C14.855 39.7294 15.1585 39.4255 15.1585 39.2633C15.1585 39.1011 14.855 38.7973 14.693 38.7973C14.624 38.7973 14.4911 38.8739 14.3975 38.9676Z" fill="#A140FF"/>
</svg>
