<svg width="62" height="70" viewBox="0 0 62 70" fill="none" xmlns="http://www.w3.org/2000/svg">
<g opacity="0.3">
<path opacity="0.3" d="M43.1155 14.1767C41.4278 14.1752 39.8097 13.5493 38.6163 12.4365C37.423 11.3237 36.7518 9.81488 36.7501 8.24116V0H8.30703C6.10388 0 3.99094 0.816126 2.43308 2.2688C0.875221 3.72147 0 5.69167 0 7.74606V54.4413C0 56.4957 0.875221 58.466 2.43308 59.9187C3.99094 61.3713 6.10388 62.1875 8.30703 62.1875H42.4486C44.6518 62.1875 46.7647 61.3713 48.3226 59.9187C49.8804 58.466 50.7557 56.4957 50.7557 54.4413V14.1767H43.1155Z" fill="#00C650"/>
</g>
<path d="M50.7555 14.1767H43.1153C41.4276 14.1752 39.8096 13.5493 38.6162 12.4365C37.4228 11.3237 36.7516 9.81488 36.75 8.24116V0L50.7555 14.1767Z" fill="#00C650"/>
<path d="M56.7815 49.1104H18.1823C15.4442 49.1104 13.2246 51.1801 13.2246 53.7332V64.4644C13.2246 67.0175 15.4442 69.0872 18.1823 69.0872H56.7815C59.5195 69.0872 61.7391 67.0175 61.7391 64.4644V53.7332C61.7391 51.1801 59.5195 49.1104 56.7815 49.1104Z" fill="#00C650"/>
<path d="M26.0831 64.1293C25.755 64.1293 25.4732 64.0133 25.2379 63.7812C25.0059 63.5459 24.8899 63.2642 24.8899 62.9361C24.8899 62.6113 25.0059 62.3329 25.2379 62.1009C25.4732 61.8688 25.755 61.7528 26.0831 61.7528C26.4013 61.7528 26.6797 61.8688 26.9183 62.1009C27.157 62.3329 27.2763 62.6113 27.2763 62.9361C27.2763 63.1548 27.2199 63.3554 27.1072 63.5376C26.9979 63.7166 26.8537 63.8608 26.6747 63.9702C26.4957 64.0762 26.2985 64.1293 26.0831 64.1293ZM30.785 56.3636L32.187 59.0334L33.6238 56.3636H35.7963L33.584 60.1818L35.856 64H33.6934L32.187 61.3601L30.7054 64H28.5179L30.785 60.1818L28.5975 56.3636H30.785ZM39.1721 53.8182V64H37.0542V53.8182H39.1721ZM47.2223 58.5412L45.2834 58.6605C45.2502 58.4948 45.179 58.3456 45.0696 58.2131C44.9602 58.0772 44.8161 57.9695 44.6371 57.8899C44.4614 57.8071 44.2509 57.7656 44.0057 57.7656C43.6776 57.7656 43.4008 57.8352 43.1754 57.9744C42.95 58.1103 42.8374 58.2926 42.8374 58.5213C42.8374 58.7036 42.9103 58.8577 43.0561 58.9837C43.2019 59.1096 43.4522 59.2107 43.8068 59.2869L45.1889 59.5653C45.9313 59.7178 46.4848 59.9631 46.8494 60.3011C47.214 60.6392 47.3963 61.0833 47.3963 61.6335C47.3963 62.134 47.2488 62.5732 46.9538 62.951C46.6622 63.3288 46.2611 63.6238 45.7507 63.8359C45.2436 64.0447 44.6586 64.1491 43.9957 64.1491C42.9848 64.1491 42.1795 63.9387 41.5795 63.5178C40.983 63.0935 40.6333 62.5168 40.5305 61.7876L42.6136 61.6783C42.6766 61.9865 42.8291 62.2218 43.071 62.3842C43.313 62.5433 43.6229 62.6229 44.0007 62.6229C44.3719 62.6229 44.6702 62.5516 44.8956 62.4091C45.1243 62.2633 45.2403 62.076 45.2436 61.8473C45.2403 61.6551 45.1591 61.4976 45 61.375C44.8409 61.2491 44.5956 61.1529 44.2642 61.0866L42.9418 60.8232C42.196 60.674 41.6409 60.4155 41.2763 60.0476C40.915 59.6797 40.7344 59.2107 40.7344 58.6406C40.7344 58.1501 40.867 57.7275 41.1321 57.3729C41.4006 57.0182 41.7768 56.7448 42.2607 56.5526C42.7479 56.3603 43.3179 56.2642 43.9709 56.2642C44.9354 56.2642 45.6944 56.468 46.2479 56.8757C46.8047 57.2834 47.1295 57.8385 47.2223 58.5412Z" fill="white"/>
<mask id="mask0_176_3716" style="mask-type:alpha" maskUnits="userSpaceOnUse" x="10" y="19" width="31" height="24">
<path fill-rule="evenodd" clip-rule="evenodd" d="M10.1857 19.2294L10 19.4151V30.5437V41.6723L10.1857 41.858L10.3714 42.0437H25.1316H39.8918L40.0774 41.858L40.2632 41.6723V30.5437V19.4151L40.0774 19.2294L39.8918 19.0437H25.1316H10.3714L10.1857 19.2294ZM19.6842 21.4648V22.6753H15.4474H11.2105V21.4648V20.2542H15.4474H19.6842V21.4648ZM29.3684 21.4648V22.6753H25.1316H20.8947V21.4648V20.2542H25.1316H29.3684V21.4648ZM39.0526 21.4648V22.6753H34.8158H30.5789V21.4648V20.2542H34.8158H39.0526V21.4648ZM19.6842 32.3595V40.8332H15.4474H11.2105V32.3595V23.8858H15.4474H19.6842V32.3595ZM29.3684 32.3595V40.8332H25.1316H20.8947V32.3595V23.8858H25.1316H29.3684V32.3595ZM39.0526 32.3595V40.8332H34.8158H30.5789V32.3595V23.8858H34.8158H39.0526V32.3595ZM13.8173 26.4926C13.7002 26.6096 13.6316 26.7647 13.6316 26.9121C13.6316 27.0595 13.7002 27.2146 13.8173 27.3316C14.0015 27.5159 14.0147 27.5174 15.4474 27.5174C16.88 27.5174 16.8933 27.5159 17.0774 27.3316C17.1945 27.2146 17.2632 27.0595 17.2632 26.9121C17.2632 26.7647 17.1945 26.6096 17.0774 26.4926C16.8933 26.3084 16.88 26.3069 15.4474 26.3069C14.0147 26.3069 14.0015 26.3084 13.8173 26.4926ZM23.5015 26.4926C23.3844 26.6096 23.3158 26.7647 23.3158 26.9121C23.3158 27.0595 23.3844 27.2146 23.5015 27.3316C23.6857 27.5159 23.6989 27.5174 25.1316 27.5174C26.5642 27.5174 26.5775 27.5159 26.7616 27.3316C26.8787 27.2146 26.9474 27.0595 26.9474 26.9121C26.9474 26.7647 26.8787 26.6096 26.7616 26.4926C26.5775 26.3084 26.5642 26.3069 25.1316 26.3069C23.6989 26.3069 23.6857 26.3084 23.5015 26.4926ZM33.1857 26.4926C33.0686 26.6096 33 26.7647 33 26.9121C33 27.0595 33.0686 27.2146 33.1857 27.3316C33.3699 27.5159 33.3831 27.5174 34.8158 27.5174C36.2484 27.5174 36.2617 27.5159 36.4458 27.3316C36.563 27.2146 36.6316 27.0595 36.6316 26.9121C36.6316 26.7647 36.563 26.6096 36.4458 26.4926C36.2617 26.3084 36.2484 26.3069 34.8158 26.3069C33.3831 26.3069 33.3699 26.3084 33.1857 26.4926ZM13.8173 30.1242C13.7002 30.2412 13.6316 30.3963 13.6316 30.5437C13.6316 30.6911 13.7002 30.8462 13.8173 30.9632C14.0015 31.1475 14.0147 31.149 15.4474 31.149C16.88 31.149 16.8933 31.1475 17.0774 30.9632C17.1945 30.8462 17.2632 30.6911 17.2632 30.5437C17.2632 30.3963 17.1945 30.2412 17.0774 30.1242C16.8933 29.94 16.88 29.9384 15.4474 29.9384C14.0147 29.9384 14.0015 29.94 13.8173 30.1242ZM23.5015 30.1242C23.3844 30.2412 23.3158 30.3963 23.3158 30.5437C23.3158 30.6911 23.3844 30.8462 23.5015 30.9632C23.6857 31.1475 23.6989 31.149 25.1316 31.149C26.5642 31.149 26.5775 31.1475 26.7616 30.9632C26.8787 30.8462 26.9474 30.6911 26.9474 30.5437C26.9474 30.3963 26.8787 30.2412 26.7616 30.1242C26.5775 29.94 26.5642 29.9384 25.1316 29.9384C23.6989 29.9384 23.6857 29.94 23.5015 30.1242ZM33.1857 30.1242C33.0686 30.2412 33 30.3963 33 30.5437C33 30.6911 33.0686 30.8462 33.1857 30.9632C33.3699 31.1475 33.3831 31.149 34.8158 31.149C36.2484 31.149 36.2617 31.1475 36.4458 30.9632C36.563 30.8462 36.6316 30.6911 36.6316 30.5437C36.6316 30.3963 36.563 30.2412 36.4458 30.1242C36.2617 29.94 36.2484 29.9384 34.8158 29.9384C33.3831 29.9384 33.3699 29.94 33.1857 30.1242ZM13.8173 33.7558C13.7002 33.8728 13.6316 34.0279 13.6316 34.1753C13.6316 34.3227 13.7002 34.4778 13.8173 34.5948C14.0015 34.779 14.0147 34.7805 15.4474 34.7805C16.88 34.7805 16.8933 34.779 17.0774 34.5948C17.1945 34.4778 17.2632 34.3227 17.2632 34.1753C17.2632 34.0279 17.1945 33.8728 17.0774 33.7558C16.8933 33.5715 16.88 33.57 15.4474 33.57C14.0147 33.57 14.0015 33.5715 13.8173 33.7558ZM23.5015 33.7558C23.3844 33.8728 23.3158 34.0279 23.3158 34.1753C23.3158 34.3227 23.3844 34.4778 23.5015 34.5948C23.6857 34.779 23.6989 34.7805 25.1316 34.7805C26.5642 34.7805 26.5775 34.779 26.7616 34.5948C26.8787 34.4778 26.9474 34.3227 26.9474 34.1753C26.9474 34.0279 26.8787 33.8728 26.7616 33.7558C26.5775 33.5715 26.5642 33.57 25.1316 33.57C23.6989 33.57 23.6857 33.5715 23.5015 33.7558ZM33.1857 33.7558C33.0686 33.8728 33 34.0279 33 34.1753C33 34.3227 33.0686 34.4778 33.1857 34.5948C33.3699 34.779 33.3831 34.7805 34.8158 34.7805C36.2484 34.7805 36.2617 34.779 36.4458 34.5948C36.563 34.4778 36.6316 34.3227 36.6316 34.1753C36.6316 34.0279 36.563 33.8728 36.4458 33.7558C36.2617 33.5715 36.2484 33.57 34.8158 33.57C33.3831 33.57 33.3699 33.5715 33.1857 33.7558ZM13.8173 37.3873C13.7002 37.5044 13.6316 37.6595 13.6316 37.8069C13.6316 37.9542 13.7002 38.1093 13.8173 38.2264C14.0015 38.4106 14.0147 38.4121 15.4474 38.4121C16.88 38.4121 16.8933 38.4106 17.0774 38.2264C17.1945 38.1093 17.2632 37.9542 17.2632 37.8069C17.2632 37.6595 17.1945 37.5044 17.0774 37.3873C16.8933 37.2031 16.88 37.2016 15.4474 37.2016C14.0147 37.2016 14.0015 37.2031 13.8173 37.3873ZM23.5015 37.3873C23.3844 37.5044 23.3158 37.6595 23.3158 37.8069C23.3158 37.9542 23.3844 38.1093 23.5015 38.2264C23.6857 38.4106 23.6989 38.4121 25.1316 38.4121C26.5642 38.4121 26.5775 38.4106 26.7616 38.2264C26.8787 38.1093 26.9474 37.9542 26.9474 37.8069C26.9474 37.6595 26.8787 37.5044 26.7616 37.3873C26.5775 37.2031 26.5642 37.2016 25.1316 37.2016C23.6989 37.2016 23.6857 37.2031 23.5015 37.3873ZM33.1857 37.3873C33.0686 37.5044 33 37.6595 33 37.8069C33 37.9542 33.0686 38.1093 33.1857 38.2264C33.3699 38.4106 33.3831 38.4121 34.8158 38.4121C36.2484 38.4121 36.2617 38.4106 36.4458 38.2264C36.563 38.1093 36.6316 37.9542 36.6316 37.8069C36.6316 37.6595 36.563 37.5044 36.4458 37.3873C36.2617 37.2031 36.2484 37.2016 34.8158 37.2016C33.3831 37.2016 33.3699 37.2031 33.1857 37.3873Z" fill="#F5F7FA"/>
</mask>
<g mask="url(#mask0_176_3716)">
<rect x="7.27686" y="17.0765" width="35.4079" height="26.9342" fill="#00C650"/>
</g>
</svg>
