<svg width="62" height="69" viewBox="0 0 62 69" fill="none" xmlns="http://www.w3.org/2000/svg">
<g opacity="0.3">
<path opacity="0.3" d="M43.1155 14.1767C41.4278 14.1752 39.8097 13.5493 38.6163 12.4365C37.423 11.3237 36.7518 9.81488 36.7501 8.24116V0H8.30703C6.10388 0 3.99094 0.816126 2.43308 2.2688C0.875221 3.72147 0 5.69167 0 7.74606V54.4413C0 56.4957 0.875221 58.466 2.43308 59.9187C3.99094 61.3713 6.10388 62.1875 8.30703 62.1875H42.4486C44.6518 62.1875 46.7647 61.3713 48.3226 59.9187C49.8804 58.466 50.7557 56.4957 50.7557 54.4413V14.1767H43.1155Z" fill="#E100FF"/>
</g>
<path d="M50.7555 14.1767H43.1153C41.4276 14.1752 39.8096 13.5493 38.6162 12.4365C37.4228 11.3237 36.7516 9.81488 36.75 8.24116V0L50.7555 14.1767Z" fill="#E100FF"/>
<path d="M57.6059 49H23.3941C20.9673 49 19 51.0721 19 53.6282V64.3718C19 66.9279 20.9673 69 23.3941 69H57.6059C60.0327 69 62 66.9279 62 64.3718V53.6282C62 51.0721 60.0327 49 57.6059 49Z" fill="#E100FF"/>
<path d="M29.0831 63.1293C28.755 63.1293 28.4732 63.0133 28.2379 62.7812C28.0059 62.5459 27.8899 62.2642 27.8899 61.9361C27.8899 61.6113 28.0059 61.3329 28.2379 61.1009C28.4732 60.8688 28.755 60.7528 29.0831 60.7528C29.4013 60.7528 29.6797 60.8688 29.9183 61.1009C30.157 61.3329 30.2763 61.6113 30.2763 61.9361C30.2763 62.1548 30.2199 62.3554 30.1072 62.5376C29.9979 62.7166 29.8537 62.8608 29.6747 62.9702C29.4957 63.0762 29.2985 63.1293 29.0831 63.1293ZM33.785 55.3636L35.187 58.0334L36.6238 55.3636H38.7963L36.584 59.1818L38.856 63H36.6934L35.187 60.3601L33.7054 63H31.5179L33.785 59.1818L31.5975 55.3636H33.785ZM42.1721 52.8182V63H40.0542V52.8182H42.1721ZM50.2223 57.5412L48.2834 57.6605C48.2502 57.4948 48.179 57.3456 48.0696 57.2131C47.9602 57.0772 47.8161 56.9695 47.6371 56.8899C47.4614 56.8071 47.2509 56.7656 47.0057 56.7656C46.6776 56.7656 46.4008 56.8352 46.1754 56.9744C45.95 57.1103 45.8374 57.2926 45.8374 57.5213C45.8374 57.7036 45.9103 57.8577 46.0561 57.9837C46.2019 58.1096 46.4522 58.2107 46.8068 58.2869L48.1889 58.5653C48.9313 58.7178 49.4848 58.9631 49.8494 59.3011C50.214 59.6392 50.3963 60.0833 50.3963 60.6335C50.3963 61.134 50.2488 61.5732 49.9538 61.951C49.6622 62.3288 49.2611 62.6238 48.7507 62.8359C48.2436 63.0447 47.6586 63.1491 46.9957 63.1491C45.9848 63.1491 45.1795 62.9387 44.5795 62.5178C43.983 62.0935 43.6333 61.5168 43.5305 60.7876L45.6136 60.6783C45.6766 60.9865 45.8291 61.2218 46.071 61.3842C46.313 61.5433 46.6229 61.6229 47.0007 61.6229C47.3719 61.6229 47.6702 61.5516 47.8956 61.4091C48.1243 61.2633 48.2403 61.076 48.2436 60.8473C48.2403 60.6551 48.1591 60.4976 48 60.375C47.8409 60.2491 47.5956 60.1529 47.2642 60.0866L45.9418 59.8232C45.196 59.674 44.6409 59.4155 44.2763 59.0476C43.915 58.6797 43.7344 58.2107 43.7344 57.6406C43.7344 57.1501 43.867 56.7275 44.1321 56.3729C44.4006 56.0182 44.7768 55.7448 45.2607 55.5526C45.7479 55.3603 46.3179 55.2642 46.9709 55.2642C47.9354 55.2642 48.6944 55.468 49.2479 55.8757C49.8047 56.2834 50.1295 56.8385 50.2223 57.5412Z" fill="white"/>
<mask id="mask0_176_3659" style="mask-type:alpha" maskUnits="userSpaceOnUse" x="10" y="19" width="31" height="24">
<path fill-rule="evenodd" clip-rule="evenodd" d="M10.1857 19.2294L10 19.4151V30.5437V41.6723L10.1857 41.858L10.3714 42.0437H25.1316H39.8918L40.0774 41.858L40.2632 41.6723V30.5437V19.4151L40.0774 19.2294L39.8918 19.0437H25.1316H10.3714L10.1857 19.2294ZM19.6842 21.4648V22.6753H15.4474H11.2105V21.4648V20.2542H15.4474H19.6842V21.4648ZM29.3684 21.4648V22.6753H25.1316H20.8947V21.4648V20.2542H25.1316H29.3684V21.4648ZM39.0526 21.4648V22.6753H34.8158H30.5789V21.4648V20.2542H34.8158H39.0526V21.4648ZM19.6842 32.3595V40.8332H15.4474H11.2105V32.3595V23.8858H15.4474H19.6842V32.3595ZM29.3684 32.3595V40.8332H25.1316H20.8947V32.3595V23.8858H25.1316H29.3684V32.3595ZM39.0526 32.3595V40.8332H34.8158H30.5789V32.3595V23.8858H34.8158H39.0526V32.3595ZM13.8173 26.4926C13.7002 26.6096 13.6316 26.7647 13.6316 26.9121C13.6316 27.0595 13.7002 27.2146 13.8173 27.3316C14.0015 27.5159 14.0147 27.5174 15.4474 27.5174C16.88 27.5174 16.8933 27.5159 17.0774 27.3316C17.1945 27.2146 17.2632 27.0595 17.2632 26.9121C17.2632 26.7647 17.1945 26.6096 17.0774 26.4926C16.8933 26.3084 16.88 26.3069 15.4474 26.3069C14.0147 26.3069 14.0015 26.3084 13.8173 26.4926ZM23.5015 26.4926C23.3844 26.6096 23.3158 26.7647 23.3158 26.9121C23.3158 27.0595 23.3844 27.2146 23.5015 27.3316C23.6857 27.5159 23.6989 27.5174 25.1316 27.5174C26.5642 27.5174 26.5775 27.5159 26.7616 27.3316C26.8787 27.2146 26.9474 27.0595 26.9474 26.9121C26.9474 26.7647 26.8787 26.6096 26.7616 26.4926C26.5775 26.3084 26.5642 26.3069 25.1316 26.3069C23.6989 26.3069 23.6857 26.3084 23.5015 26.4926ZM33.1857 26.4926C33.0686 26.6096 33 26.7647 33 26.9121C33 27.0595 33.0686 27.2146 33.1857 27.3316C33.3699 27.5159 33.3831 27.5174 34.8158 27.5174C36.2484 27.5174 36.2617 27.5159 36.4458 27.3316C36.563 27.2146 36.6316 27.0595 36.6316 26.9121C36.6316 26.7647 36.563 26.6096 36.4458 26.4926C36.2617 26.3084 36.2484 26.3069 34.8158 26.3069C33.3831 26.3069 33.3699 26.3084 33.1857 26.4926ZM13.8173 30.1242C13.7002 30.2412 13.6316 30.3963 13.6316 30.5437C13.6316 30.6911 13.7002 30.8462 13.8173 30.9632C14.0015 31.1475 14.0147 31.149 15.4474 31.149C16.88 31.149 16.8933 31.1475 17.0774 30.9632C17.1945 30.8462 17.2632 30.6911 17.2632 30.5437C17.2632 30.3963 17.1945 30.2412 17.0774 30.1242C16.8933 29.94 16.88 29.9384 15.4474 29.9384C14.0147 29.9384 14.0015 29.94 13.8173 30.1242ZM23.5015 30.1242C23.3844 30.2412 23.3158 30.3963 23.3158 30.5437C23.3158 30.6911 23.3844 30.8462 23.5015 30.9632C23.6857 31.1475 23.6989 31.149 25.1316 31.149C26.5642 31.149 26.5775 31.1475 26.7616 30.9632C26.8787 30.8462 26.9474 30.6911 26.9474 30.5437C26.9474 30.3963 26.8787 30.2412 26.7616 30.1242C26.5775 29.94 26.5642 29.9384 25.1316 29.9384C23.6989 29.9384 23.6857 29.94 23.5015 30.1242ZM33.1857 30.1242C33.0686 30.2412 33 30.3963 33 30.5437C33 30.6911 33.0686 30.8462 33.1857 30.9632C33.3699 31.1475 33.3831 31.149 34.8158 31.149C36.2484 31.149 36.2617 31.1475 36.4458 30.9632C36.563 30.8462 36.6316 30.6911 36.6316 30.5437C36.6316 30.3963 36.563 30.2412 36.4458 30.1242C36.2617 29.94 36.2484 29.9384 34.8158 29.9384C33.3831 29.9384 33.3699 29.94 33.1857 30.1242ZM13.8173 33.7558C13.7002 33.8728 13.6316 34.0279 13.6316 34.1753C13.6316 34.3227 13.7002 34.4778 13.8173 34.5948C14.0015 34.779 14.0147 34.7805 15.4474 34.7805C16.88 34.7805 16.8933 34.779 17.0774 34.5948C17.1945 34.4778 17.2632 34.3227 17.2632 34.1753C17.2632 34.0279 17.1945 33.8728 17.0774 33.7558C16.8933 33.5715 16.88 33.57 15.4474 33.57C14.0147 33.57 14.0015 33.5715 13.8173 33.7558ZM23.5015 33.7558C23.3844 33.8728 23.3158 34.0279 23.3158 34.1753C23.3158 34.3227 23.3844 34.4778 23.5015 34.5948C23.6857 34.779 23.6989 34.7805 25.1316 34.7805C26.5642 34.7805 26.5775 34.779 26.7616 34.5948C26.8787 34.4778 26.9474 34.3227 26.9474 34.1753C26.9474 34.0279 26.8787 33.8728 26.7616 33.7558C26.5775 33.5715 26.5642 33.57 25.1316 33.57C23.6989 33.57 23.6857 33.5715 23.5015 33.7558ZM33.1857 33.7558C33.0686 33.8728 33 34.0279 33 34.1753C33 34.3227 33.0686 34.4778 33.1857 34.5948C33.3699 34.779 33.3831 34.7805 34.8158 34.7805C36.2484 34.7805 36.2617 34.779 36.4458 34.5948C36.563 34.4778 36.6316 34.3227 36.6316 34.1753C36.6316 34.0279 36.563 33.8728 36.4458 33.7558C36.2617 33.5715 36.2484 33.57 34.8158 33.57C33.3831 33.57 33.3699 33.5715 33.1857 33.7558ZM13.8173 37.3873C13.7002 37.5044 13.6316 37.6595 13.6316 37.8069C13.6316 37.9542 13.7002 38.1093 13.8173 38.2264C14.0015 38.4106 14.0147 38.4121 15.4474 38.4121C16.88 38.4121 16.8933 38.4106 17.0774 38.2264C17.1945 38.1093 17.2632 37.9542 17.2632 37.8069C17.2632 37.6595 17.1945 37.5044 17.0774 37.3873C16.8933 37.2031 16.88 37.2016 15.4474 37.2016C14.0147 37.2016 14.0015 37.2031 13.8173 37.3873ZM23.5015 37.3873C23.3844 37.5044 23.3158 37.6595 23.3158 37.8069C23.3158 37.9542 23.3844 38.1093 23.5015 38.2264C23.6857 38.4106 23.6989 38.4121 25.1316 38.4121C26.5642 38.4121 26.5775 38.4106 26.7616 38.2264C26.8787 38.1093 26.9474 37.9542 26.9474 37.8069C26.9474 37.6595 26.8787 37.5044 26.7616 37.3873C26.5775 37.2031 26.5642 37.2016 25.1316 37.2016C23.6989 37.2016 23.6857 37.2031 23.5015 37.3873ZM33.1857 37.3873C33.0686 37.5044 33 37.6595 33 37.8069C33 37.9542 33.0686 38.1093 33.1857 38.2264C33.3699 38.4106 33.3831 38.4121 34.8158 38.4121C36.2484 38.4121 36.2617 38.4106 36.4458 38.2264C36.563 38.1093 36.6316 37.9542 36.6316 37.8069C36.6316 37.6595 36.563 37.5044 36.4458 37.3873C36.2617 37.2031 36.2484 37.2016 34.8158 37.2016C33.3831 37.2016 33.3699 37.2031 33.1857 37.3873Z" fill="#F5F7FA"/>
</mask>
<g mask="url(#mask0_176_3659)">
<rect x="7.27686" y="17.0765" width="35.4079" height="26.9342" fill="#E100FF"/>
</g>
</svg>
