<svg width="62" height="69" viewBox="0 0 62 69" fill="none" xmlns="http://www.w3.org/2000/svg">
<g opacity="0.3">
<path opacity="0.3" d="M43.1155 14.1767C41.4278 14.1752 39.8097 13.5493 38.6163 12.4365C37.423 11.3237 36.7518 9.81488 36.7501 8.24116V0H8.30703C6.10388 0 3.99094 0.816126 2.43308 2.2688C0.875221 3.72147 0 5.69167 0 7.74606V54.4413C0 56.4957 0.875221 58.466 2.43308 59.9187C3.99094 61.3713 6.10388 62.1875 8.30703 62.1875H42.4486C44.6518 62.1875 46.7647 61.3713 48.3226 59.9187C49.8804 58.466 50.7557 56.4957 50.7557 54.4413V14.1767H43.1155Z" fill="#005FAD"/>
</g>
<path d="M50.7555 14.1767H43.1153C41.4276 14.1752 39.8096 13.5493 38.6162 12.4365C37.4228 11.3237 36.7516 9.81488 36.75 8.24116V0L50.7555 14.1767Z" fill="#005FAD"/>
<path d="M52.5037 49H17.4963C15.0131 49 13 51.0721 13 53.6282V64.3718C13 66.9279 15.0131 69 17.4963 69H52.5037C54.987 69 57 66.9279 57 64.3718V53.6282C57 51.0721 54.987 49 52.5037 49Z" fill="#005FAD"/>
<path d="M22.4591 64.1293C22.1309 64.1293 21.8492 64.0133 21.6139 63.7812C21.3819 63.5459 21.2659 63.2642 21.2659 62.9361C21.2659 62.6113 21.3819 62.3329 21.6139 62.1009C21.8492 61.8688 22.1309 61.7528 22.4591 61.7528C22.7773 61.7528 23.0557 61.8688 23.2943 62.1009C23.5329 62.3329 23.6523 62.6113 23.6523 62.9361C23.6523 63.1548 23.5959 63.3554 23.4832 63.5376C23.3738 63.7166 23.2297 63.8608 23.0507 63.9702C22.8717 64.0762 22.6745 64.1293 22.4591 64.1293ZM27.161 56.3636L28.5629 59.0334L29.9997 56.3636H32.1723L29.96 60.1818L32.232 64H30.0693L28.5629 61.3601L27.0814 64H24.8939L27.161 60.1818L24.9735 56.3636H27.161ZM35.548 53.8182V64H33.4301V53.8182H35.548ZM43.5983 58.5412L41.6594 58.6605C41.6262 58.4948 41.555 58.3456 41.4456 58.2131C41.3362 58.0772 41.192 57.9695 41.0131 57.8899C40.8374 57.8071 40.6269 57.7656 40.3817 57.7656C40.0535 57.7656 39.7768 57.8352 39.5514 57.9744C39.326 58.1103 39.2133 58.2926 39.2133 58.5213C39.2133 58.7036 39.2863 58.8577 39.4321 58.9837C39.5779 59.1096 39.8282 59.2107 40.1828 59.2869L41.5649 59.5653C42.3073 59.7178 42.8608 59.9631 43.2254 60.3011C43.59 60.6392 43.7723 61.0833 43.7723 61.6335C43.7723 62.134 43.6248 62.5732 43.3298 62.951C43.0381 63.3288 42.6371 63.6238 42.1267 63.8359C41.6196 64.0447 41.0346 64.1491 40.3717 64.1491C39.3608 64.1491 38.5554 63.9387 37.9555 63.5178C37.3589 63.0935 37.0093 62.5168 36.9065 61.7876L38.9896 61.6783C39.0526 61.9865 39.205 62.2218 39.447 62.3842C39.689 62.5433 39.9988 62.6229 40.3767 62.6229C40.7479 62.6229 41.0462 62.5516 41.2716 62.4091C41.5003 62.2633 41.6163 62.076 41.6196 61.8473C41.6163 61.6551 41.5351 61.4976 41.376 61.375C41.2169 61.2491 40.9716 61.1529 40.6402 61.0866L39.3177 60.8232C38.572 60.674 38.0168 60.4155 37.6523 60.0476C37.291 59.6797 37.1104 59.2107 37.1104 58.6406C37.1104 58.1501 37.2429 57.7275 37.5081 57.3729C37.7765 57.0182 38.1527 56.7448 38.6366 56.5526C39.1238 56.3603 39.6939 56.2642 40.3469 56.2642C41.3113 56.2642 42.0703 56.468 42.6238 56.8757C43.1807 57.2834 43.5055 57.8385 43.5983 58.5412Z" fill="white"/>
<path fill-rule="evenodd" clip-rule="evenodd" d="M23.0053 16.0535C21.0974 16.2479 19.6124 16.6738 18.0423 17.477C16.8811 18.071 15.965 18.7311 14.9811 19.6829C12.9656 21.6327 11.6473 24.1056 11.1909 26.7926C10.8704 28.6795 10.9518 30.5096 11.4395 32.3838L11.6026 33.0107L11.4185 33.4135C11.0071 34.3134 10.8946 35.4167 11.1296 36.2466C11.4646 37.4298 12.5804 39.1755 14.1386 40.9542C15.0631 42.0096 15.2514 42.1474 15.5454 41.9842C15.668 41.9161 16.293 41.2457 16.8569 40.5775C17.0458 40.3537 17.2097 40.1706 17.2211 40.1706C17.2325 40.1706 17.4458 40.2831 17.695 40.4206C19.5776 41.4592 21.4021 41.9588 23.59 42.0347C24.8962 42.08 26.0021 41.9568 27.3338 41.6175C29.5123 41.0625 31.5684 39.8752 33.2249 38.2155C35.3469 36.0895 36.6629 33.2991 36.9639 30.2874C37.0501 29.4249 36.9991 27.7636 36.8617 26.9563C36.681 25.8953 36.4155 24.9714 36.0058 23.9787L35.859 23.6229L36.0531 23.3053C36.3604 22.8028 36.6453 22.2081 36.8216 21.7013C36.9747 21.2614 36.9844 21.191 36.9846 20.5218C36.9848 19.7572 36.9109 19.385 36.6232 18.7009C36.2155 17.7314 35.3615 16.8462 34.4103 16.4072C33.7899 16.1209 33.4609 16.053 32.6899 16.0519C32.1303 16.0511 31.9305 16.0719 31.6072 16.1644C30.9692 16.347 30.3349 16.6982 29.9106 17.104L29.6987 17.3067L28.9447 17.0014C27.2918 16.3321 26.042 16.0787 24.2509 16.0497C23.6777 16.0404 23.1172 16.0421 23.0053 16.0535ZM25.0388 16.9386C25.7542 17.0047 26.3866 17.1108 26.9994 17.2677C27.8525 17.486 29.1108 17.9565 29.0718 18.0426C29.0622 18.064 28.9713 18.2417 28.87 18.4374C28.4711 19.2081 28.2676 20.2356 28.3695 20.965C28.5073 21.9499 29.2128 23.3377 30.3056 24.7733L30.6032 25.1642L30.3375 25.1999C29.9454 25.2525 29.7684 25.3413 29.6931 25.523C29.6009 25.7456 29.7001 25.9748 29.9303 26.071C30.0246 26.1104 30.1179 26.1328 30.1376 26.121C30.1573 26.1091 30.4201 26.073 30.7216 26.0408L31.2697 25.9822L31.5328 26.2768C32.6113 27.4848 32.6736 27.5093 33.2233 26.9391C33.6906 26.4545 34.36 25.6764 34.8417 25.0578C35.0546 24.7845 35.2466 24.5637 35.2684 24.5671C35.3929 24.5866 35.8764 26.2888 36.0181 27.2069C36.1338 27.9562 36.1735 29.3829 36.1 30.1555C36.0383 30.8061 35.8576 31.7999 35.7138 32.2805L35.6331 32.5499L35.2453 32.1877C34.6735 31.6537 34.3532 31.5111 33.5363 31.4269C32.6168 31.3322 32.0695 31.5033 31.4633 32.0751C30.9291 32.5791 30.5184 33.2958 30.1928 34.292C30.1101 34.5452 30.0186 34.9232 29.9896 35.1319C29.9246 35.5991 29.7938 35.8866 29.5231 36.1574C29.27 36.4105 29.1283 36.4874 28.5721 36.6741C27.572 37.0097 26.7915 37.504 26.4503 38.0181C26.2829 38.2701 26.258 38.3483 26.2416 38.6718C26.2196 39.1078 26.2715 39.246 26.7642 40.0638C26.9463 40.3659 27.1088 40.6485 27.1254 40.6918C27.1497 40.7551 27.0675 40.791 26.7073 40.8747C25.4814 41.1595 23.7283 41.2504 22.5224 41.0917C21.7611 40.9915 21.76 40.9909 21.7588 40.6675C21.7582 40.5201 21.7341 40.2392 21.7052 40.0435C21.6236 39.4912 21.6342 39.0933 21.7359 38.8968C21.8715 38.6346 22.2909 38.2156 23.4883 37.1461C25.239 35.5825 25.8695 34.8623 26.3344 33.8955C26.6323 33.276 26.7385 32.8772 26.7753 32.2399C26.8815 30.3999 25.4587 28.0824 23.7343 27.2865C23.2454 27.0609 22.8354 26.9584 22.196 26.9023C21.3626 26.8291 20.8394 26.563 20.4713 26.0254C20.2183 25.6559 20.1225 25.3615 20.1196 24.9447C20.117 24.591 20.1411 24.5008 20.4057 23.8743C20.5929 23.4311 20.6593 22.917 20.6254 22.174C20.5787 21.1529 20.3388 20.1612 19.9709 19.4679C19.7634 19.077 19.264 18.5394 18.919 18.3357C18.7769 18.2518 18.6603 18.1693 18.6597 18.1524C18.6592 18.1354 18.9046 18.0168 19.2052 17.8888C21.0858 17.088 23.1018 16.7597 25.0388 16.9386ZM33.6922 17.0624C34.7604 17.402 35.6265 18.3273 36.0024 19.5304C36.1003 19.8438 36.1211 20.0202 36.1194 20.5218C36.1175 21.0816 36.104 21.1668 35.9555 21.5573C35.6609 22.3322 35.1444 23.1943 34.322 24.2838C33.8556 24.9016 32.7515 26.1902 32.6884 26.1902C32.5624 26.1902 31.0402 24.3212 30.4559 23.4492C29.3933 21.8631 29.0992 20.9609 29.2997 19.9026C29.7117 17.7288 31.7147 16.4336 33.6922 17.0624ZM31.9813 18.3117C31.2242 18.584 30.6798 19.2427 30.5464 20.0477C30.3571 21.1896 31.17 22.2902 32.352 22.4926C33.0258 22.608 33.7105 22.3831 34.2067 21.8834C35.0334 21.0509 35.0663 19.7558 34.2822 18.9151C33.9893 18.6011 33.7384 18.4349 33.361 18.3051C32.982 18.1747 32.3541 18.1777 31.9813 18.3117ZM18.034 18.877C18.9857 19.2301 19.4797 20.0332 19.7025 21.5894C19.8421 22.5645 19.7923 23.0919 19.4952 23.7839C19.1331 24.6275 19.1454 25.3729 19.5344 26.15C20.0186 27.1174 20.8587 27.6524 22.0736 27.767C22.7245 27.8284 23.267 27.9912 23.7027 28.2558C23.8631 28.3533 24.006 28.4518 24.0202 28.4748C24.0344 28.4979 23.8264 28.731 23.5578 28.993C23.2893 29.2549 22.8893 29.6692 22.6689 29.9136C22.3271 30.2927 22.2682 30.3846 22.2682 30.5387C22.2682 30.7747 22.4541 30.9689 22.6801 30.9689C22.8239 30.9689 22.9477 30.8606 23.7658 30.0189L24.6892 29.0689L25.0027 29.5376C25.6289 30.4738 25.8924 31.2147 25.8914 32.0365C25.8906 32.7641 25.7035 33.3454 25.2455 34.0438C24.8138 34.7019 24.2743 35.2705 23.0179 36.3917C21.5758 37.6785 21.2105 38.0496 21.003 38.4389C20.7564 38.9017 20.721 39.1973 20.8198 39.971C20.8658 40.3313 20.8959 40.6605 20.8868 40.7025C20.8732 40.7647 20.7444 40.7367 20.1838 40.5497C19.57 40.3449 18.1171 39.6838 17.8815 39.5021C17.7969 39.4368 17.8124 39.4012 18.1116 38.9752C18.7978 37.9983 19.2073 37.2442 19.4864 36.444C19.641 36.0006 19.6492 35.9398 19.6454 35.2647C19.6407 34.423 19.5446 33.9959 19.1994 33.2821C18.929 32.723 18.6132 32.2976 18.1503 31.8691C17.808 31.5521 17.8012 31.5411 17.8806 31.4279C18.0227 31.2249 18.2875 30.5458 18.4078 30.0759C18.5767 29.4161 18.5798 28.4704 18.4144 28.0609C18.1143 27.3178 17.3236 26.7957 16.1155 26.5428C15.6901 26.4538 15.3223 26.4241 14.2866 26.3954C13.1301 26.3633 12.9598 26.3475 12.7076 26.2494C12.191 26.0482 12.2046 26.1161 12.5026 25.2207C13.0976 23.4326 14.1159 21.7855 15.4528 20.4487C16.197 19.7044 17.4058 18.7705 17.6273 18.7688C17.6892 18.7683 17.8722 18.817 18.034 18.877ZM33.2241 19.1924C33.5014 19.3215 33.7809 19.6048 33.891 19.8682C33.9294 19.9603 33.9609 20.1824 33.9609 20.3618C33.9609 21.1964 33.2187 21.8001 32.4141 21.6201C31.5694 21.431 31.1443 20.5107 31.5444 19.7371C31.6463 19.54 32.0399 19.202 32.2433 19.1368C32.5435 19.0406 32.9473 19.0635 33.2241 19.1924ZM27.3474 26.1807C26.7637 26.4793 25.9776 26.9636 25.7447 27.1681C25.527 27.3592 25.5084 27.6049 25.6975 27.7939C25.9043 28.0007 26.0882 27.9611 26.6657 27.5855C26.9453 27.4036 27.4195 27.1289 27.7196 26.975C28.0197 26.8212 28.2885 26.6518 28.317 26.5986C28.467 26.3182 28.2627 25.936 27.9627 25.936C27.8874 25.936 27.6105 26.0461 27.3474 26.1807ZM12.5504 27.1159C12.7971 27.2048 13.0248 27.2251 14.1595 27.2599C15.5319 27.3019 15.8327 27.3384 16.4727 27.5405C17.1561 27.7564 17.5227 28.0683 17.6494 28.5417C17.7304 28.8447 17.6474 29.6681 17.4868 30.1538C17.3326 30.6202 17.075 31.1294 17.0065 31.1031C15.4006 30.4868 13.8479 30.7372 12.5739 31.8179C12.3136 32.0387 12.2544 32.0697 12.2318 31.9971C12.1646 31.7819 12.0021 30.8987 11.9444 30.4351C11.8319 29.5302 11.8753 27.7895 12.029 27.0421C12.054 26.9203 12.0707 26.9095 12.1604 26.9575C12.2169 26.9878 12.3924 27.059 12.5504 27.1159ZM15.7355 31.6825C16.749 31.8269 17.6188 32.3991 18.1947 33.3001C18.6995 34.0898 18.8969 35.1739 18.6867 36.0019C18.5108 36.6943 17.8937 37.7864 16.9927 38.9993C16.5958 39.5337 15.4576 40.8947 15.3542 40.9586C15.3023 40.9907 14.256 39.7848 13.7222 39.0776C12.866 37.9434 12.2796 36.9452 12.0197 36.1798C11.907 35.8482 11.8818 35.684 11.8827 35.2902C11.8871 33.4831 13.2154 31.9058 14.9206 31.6828C15.3519 31.6264 15.3415 31.6264 15.7355 31.6825ZM21.0598 31.918C20.9798 31.9502 20.335 32.8504 20.1863 33.1375C20.085 33.3332 20.0824 33.3621 20.1514 33.5274C20.244 33.749 20.3957 33.8351 20.6193 33.7932C20.7695 33.765 20.8449 33.6809 21.2494 33.0904C21.7523 32.3564 21.7947 32.2193 21.5842 32.0088C21.4645 31.8892 21.2317 31.8488 21.0598 31.918ZM34.1134 32.4282C34.2524 32.4922 34.5298 32.7238 34.8203 33.0184L35.2985 33.5032L35.1825 33.7739C34.0889 36.3269 32.0943 38.4883 29.6397 39.7805C29.1615 40.0322 28.4237 40.3581 28.1341 40.4456C28.0393 40.4742 27.9714 40.3856 27.5622 39.6991C27.0628 38.8615 27.0266 38.7374 27.1995 38.4539C27.3844 38.1507 28.3495 37.6278 29.1323 37.4068C29.6917 37.2489 30.3274 36.7019 30.6038 36.1404C30.7032 35.9384 30.7901 35.6483 30.8359 35.3658C31.0545 34.0149 31.7457 32.7577 32.4612 32.4092C32.6947 32.2954 32.7628 32.2869 33.3 32.3041C33.7551 32.3188 33.9354 32.3463 34.1134 32.4282ZM14.6759 33.0487C14.0452 33.2572 13.4959 33.7867 13.2869 34.3879C13.1615 34.7486 13.1607 35.4737 13.2853 35.8319C13.6571 36.9002 14.8769 37.5136 15.9597 37.1765C16.5767 36.9845 17.0036 36.6109 17.3021 36.0019C17.4542 35.6914 17.464 35.6377 17.464 35.1122C17.464 34.5882 17.4537 34.5313 17.3009 34.2086C17.087 33.7572 16.684 33.3534 16.2396 33.1455C15.7947 32.9373 15.1363 32.8966 14.6759 33.0487ZM15.7866 33.9C16.6291 34.1871 16.9003 35.3456 16.2757 35.9892C15.9906 36.2831 15.7478 36.3835 15.3288 36.3812C14.9227 36.3789 14.6685 36.2721 14.4067 35.9937C14.141 35.711 14.0607 35.507 14.0595 35.1122C14.0587 34.8121 14.0821 34.7138 14.2088 34.4845C14.5202 33.9209 15.1564 33.6853 15.7866 33.9Z" fill="#005FAD"/>
</svg>
